<svg xmlns="http://www.w3.org/2000/svg" width="17.933" height="22.049" viewBox="0 0 17.933 22.049">
  <g id="Group_3007" data-name="Group 3007" transform="translate(-1271.999 -809.213)">
    <path id="Path_29" data-name="Path 29" d="M57.6.882A.885.885,0,0,0,56.718,0H40.549a.885.885,0,0,0-.882.882V21.167a.885.885,0,0,0,.882.882H56.718a.885.885,0,0,0,.882-.882V.882Zm-16.169.882H55.836V20.285H41.431Z" transform="translate(1232.332 809.213)" fill="#8de219"/>
    <g id="Group_122" data-name="Group 122" transform="translate(1272 809.213)">
      <path id="Path_31" data-name="Path 31" d="M127.82,189.833h-7.938a.882.882,0,1,0,0,1.764h7.938a.882.882,0,1,0,0-1.764Z" transform="translate(199.681 -113.12) rotate(90)" fill="#8de219"/>
      <path id="Path_198" data-name="Path 198" d="M127.82,189.833h-7.938a.882.882,0,1,0,0,1.764h7.938a.882.882,0,1,0,0-1.764Z" transform="translate(132.817 201.445) rotate(180)" fill="#8de219"/>
    </g>
  </g>
</svg>
