<svg xmlns="http://www.w3.org/2000/svg" width="24.111" height="26.948" viewBox="0 0 24.111 26.948">
  <g id="Group_2366" data-name="Group 2366" transform="translate(-51.42 -223)">
    <g id="Group_2360" data-name="Group 2360" transform="translate(51.42 223)">
      <g id="Group_2360-2" data-name="Group 2360" transform="translate(0 0)">
        <path id="Path_520" data-name="Path 520" d="M51.379,5.032a4.957,4.957,0,0,0-4.113,4.893v17.02a4.96,4.96,0,0,0,4.964,4.964H66.413a4.97,4.97,0,0,0,4.964-4.964V9.925a4.97,4.97,0,0,0-4.964-4.964H66.4ZM66.4,6.379h.014a3.547,3.547,0,0,1,3.546,3.546v17.02a3.547,3.547,0,0,1-3.546,3.546H52.23a3.547,3.547,0,0,1-3.546-3.546V9.925a3.53,3.53,0,0,1,2.695-3.432Z" transform="translate(-47.266 -4.961)" fill="#00214b"/>
      </g>
    </g>
    <g id="Group_2364" data-name="Group 2364" transform="translate(56.392 227.435)">
      <g id="Group_2364-2" data-name="Group 2364" transform="translate(0 8.368)">
        <path id="Path_521" data-name="Path 521" d="M65.018,21.935H50.886V18.1c0-3.061,3.17-5.551,7.066-5.551s7.066,2.49,7.066,5.551ZM52.334,20.487H63.57V18.1c0-2.262-2.521-4.1-5.618-4.1s-5.618,1.842-5.618,4.1Z" transform="translate(-50.886 -12.552)" fill="#00214b"/>
      </g>
      <g id="Group_2365" data-name="Group 2365" transform="translate(3.911)">
        <path id="Path_522" data-name="Path 522" d="M56.944,14.25a3.38,3.38,0,0,1-3.155-3.559,3.179,3.179,0,1,1,6.312,0A3.38,3.38,0,0,1,56.944,14.25Zm0-5.712a1.985,1.985,0,0,0-1.751,2.153,1.789,1.789,0,1,0,3.5,0A1.986,1.986,0,0,0,56.944,8.538Z" transform="translate(-53.789 -7.132)" fill="#00214b"/>
      </g>
    </g>
  </g>
</svg>
