<svg xmlns="http://www.w3.org/2000/svg" width="139.23" height="226.088" viewBox="0 0 139.23 226.088">
  <g id="Group_3016" data-name="Group 3016" transform="translate(-906.159 -760.14)">
    <g id="Group_3014" data-name="Group 3014">
      <g id="Group_3013" data-name="Group 3013">
        <g id="Group_2864" data-name="Group 2864" transform="translate(998 913)" opacity="0.2">
          <path id="Path_1234" data-name="Path 1234" d="M6.763,0H5.038V-11.439l-3.46,1.271v-1.559l4.917-1.846h.269Z" transform="translate(-0.001 18.001)" fill="#69b501"/>
          <path id="Path_1232" data-name="Path 1232" d="M11.391,0H8.484V-19.266L2.656-17.125V-19.75l8.281-3.109h.453Z" transform="translate(35.999 40.001)" fill="#00214b"/>
          <path id="Path_1233" data-name="Path 1233" d="M19.186-11.522q0,6.03-2.06,8.962T10.688.371q-4.323,0-6.4-2.867T2.134-11.059v-4.583q0-5.956,2.06-8.851t6.457-2.895q4.36,0,6.42,2.792t2.115,8.619Zm-3.433-4.694q0-4.36-1.225-6.355a4.215,4.215,0,0,0-3.878-1.995A4.16,4.16,0,0,0,6.81-22.581a12.281,12.281,0,0,0-1.243,6.1v5.492q0,4.379,1.271,6.466a4.207,4.207,0,0,0,3.85,2.087A4.149,4.149,0,0,0,14.463-4.4q1.234-1.967,1.29-6.2Z" transform="translate(12.523 72.857)" fill="#487dc7" opacity="0.5"/>
        </g>
        <g id="Group_2865" data-name="Group 2865" transform="translate(940 753)" opacity="0.2">
          <path id="Path_1240" data-name="Path 1240" d="M11.391,0H8.484V-19.266L2.656-17.125V-19.75l8.281-3.109h.453Z" transform="translate(0 29.999)" fill="#d07d1e"/>
          <path id="Path_1239" data-name="Path 1239" d="M11.391,0H8.484V-19.266L2.656-17.125V-19.75l8.281-3.109h.453Z" transform="translate(40 39.999)" fill="#4296d6" opacity="0.5"/>
          <path id="Path_1238" data-name="Path 1238" d="M19.186-11.522q0,6.03-2.06,8.962T10.688.371q-4.323,0-6.4-2.867T2.134-11.059v-4.583q0-5.956,2.06-8.851t6.457-2.895q4.36,0,6.42,2.792t2.115,8.619Zm-3.433-4.694q0-4.36-1.225-6.355a4.215,4.215,0,0,0-3.878-1.995A4.16,4.16,0,0,0,6.81-22.581a12.281,12.281,0,0,0-1.243,6.1v5.492q0,4.379,1.271,6.466a4.207,4.207,0,0,0,3.85,2.087A4.149,4.149,0,0,0,14.463-4.4q1.234-1.967,1.29-6.2Z" transform="translate(17.001 73)" fill="#00214b" opacity="0.5"/>
        </g>
        <g id="Group_2866" data-name="Group 2866" transform="translate(904 864.141)" opacity="0.2">
          <path id="Path_1237" data-name="Path 1237" d="M9.255,0H6.894V-15.653L2.158-13.914v-2.133l6.729-2.526h.368Z" transform="translate(0.001 23.859)" fill="#00214b"/>
          <path id="Path_1236" data-name="Path 1236" d="M9.255,0H6.894V-15.653L2.158-13.914v-2.133l6.729-2.526h.368Z" transform="translate(33.001 31.859)" fill="#4296d6" opacity="0.5"/>
          <path id="Path_1235" data-name="Path 1235" d="M15.146-9.1q0,4.761-1.626,7.075A5.783,5.783,0,0,1,8.438.293,5.825,5.825,0,0,1,3.384-1.97q-1.641-2.263-1.7-6.76v-3.618q0-4.7,1.626-6.987a5.827,5.827,0,0,1,5.1-2.285,5.88,5.88,0,0,1,5.068,2.2q1.626,2.2,1.67,6.8ZM12.437-12.8a9.93,9.93,0,0,0-.967-5.017,3.328,3.328,0,0,0-3.062-1.575,3.284,3.284,0,0,0-3.032,1.567,9.7,9.7,0,0,0-.981,4.819v4.336a10.089,10.089,0,0,0,1,5.1,3.321,3.321,0,0,0,3.04,1.648,3.276,3.276,0,0,0,2.981-1.553,9.724,9.724,0,0,0,1.018-4.893Z" transform="translate(14.002 59.86)" fill="#d07d1e" opacity="0.5"/>
        </g>
      </g>
      <g id="Group_3015" data-name="Group 3015" transform="translate(986.621 864.895)" opacity="0.5">
        <g id="Group_2829" data-name="Group 2829" transform="translate(0)">
          <path id="Path_1168" data-name="Path 1168" d="M46.47,7.165,44.2,15.427l-1.151,4.206-3.091,11.24A2.1,2.1,0,1,1,35.9,29.758l.014-.05,1.321-4.817v-.007l1.442-5.25,1.158-4.206,2.572-9.378A2.107,2.107,0,0,1,46.47,7.165Z" transform="translate(-35.821 -4.501)" fill="#00214b"/>
        </g>
      </g>
    </g>
  </g>
</svg>
