<svg xmlns="http://www.w3.org/2000/svg" width="126.312" height="225.094" viewBox="0 0 126.312 225.094">
  <g id="Group_3017" data-name="Group 3017" transform="translate(-925.324 -137.996)" opacity="0.7">
    <path id="Path_1241" data-name="Path 1241" d="M9.967,0H7.424V-16.857l-5.1,1.873v-2.3L9.57-20h.4Z" transform="translate(960 157.998)" fill="#00214b"/>
    <path id="Path_1242" data-name="Path 1242" d="M9.967,0H7.424V-16.857l-5.1,1.873v-2.3L9.57-20h.4Z" transform="translate(1003 166.998)" fill="#4296d6" opacity="0.5"/>
    <path id="Path_1243" data-name="Path 1243" d="M16.156-9.7q0,5.078-1.734,7.547A6.168,6.168,0,0,1,9,.313,6.213,6.213,0,0,1,3.609-2.1Q1.859-4.516,1.8-9.312v-3.859q0-5.016,1.734-7.453a6.216,6.216,0,0,1,5.438-2.437,6.273,6.273,0,0,1,5.406,2.352q1.734,2.352,1.781,7.258Zm-2.891-3.953a10.592,10.592,0,0,0-1.031-5.352,3.55,3.55,0,0,0-3.266-1.68,3.5,3.5,0,0,0-3.234,1.672,10.342,10.342,0,0,0-1.047,5.141V-9.25A10.762,10.762,0,0,0,5.758-3.8,3.543,3.543,0,0,0,9-2.047,3.494,3.494,0,0,0,12.18-3.7a10.372,10.372,0,0,0,1.086-5.219Z" transform="translate(977.975 195.695)" fill="#d07d1e" opacity="0.5"/>
    <path id="Path_1247" data-name="Path 1247" d="M9.967,0H7.424V-16.857l-5.1,1.873v-2.3L9.57-20h.4Z" transform="translate(923 325)" fill="#00214b"/>
    <path id="Path_1248" data-name="Path 1248" d="M9.967,0H7.424V-16.857l-5.1,1.873v-2.3L9.57-20h.4Z" transform="translate(966 334)" fill="#4296d6" opacity="0.5"/>
    <path id="Path_1249" data-name="Path 1249" d="M16.156-9.7q0,5.078-1.734,7.547A6.168,6.168,0,0,1,9,.313,6.213,6.213,0,0,1,3.609-2.1Q1.859-4.516,1.8-9.312v-3.859q0-5.016,1.734-7.453a6.216,6.216,0,0,1,5.438-2.437,6.273,6.273,0,0,1,5.406,2.352q1.734,2.352,1.781,7.258Zm-2.891-3.953a10.592,10.592,0,0,0-1.031-5.352,3.55,3.55,0,0,0-3.266-1.68,3.5,3.5,0,0,0-3.234,1.672,10.342,10.342,0,0,0-1.047,5.141V-9.25A10.762,10.762,0,0,0,5.758-3.8,3.543,3.543,0,0,0,9-2.047,3.494,3.494,0,0,0,12.18-3.7a10.372,10.372,0,0,0,1.086-5.219Z" transform="translate(940.975 362.777)" fill="#d07d1e" opacity="0.5"/>
    <path id="Path_1244" data-name="Path 1244" d="M21.71-13.039q0,6.824-2.331,10.141T12.094.42Q7.2.42,4.85-2.824t-2.436-9.69V-17.7q0-6.74,2.331-10.015t7.307-3.275q4.934,0,7.265,3.16t2.394,9.753Zm-3.884-5.312q0-4.934-1.386-7.191A4.77,4.77,0,0,0,12.052-27.8a4.707,4.707,0,0,0-4.346,2.247Q6.341-23.306,6.3-18.645v6.215q0,4.955,1.438,7.317A4.761,4.761,0,0,0,12.094-2.75a4.7,4.7,0,0,0,4.273-2.226q1.4-2.226,1.459-7.013Z" transform="translate(1027.33 217.164)" fill="#487dc7" opacity="0.5"/>
    <path id="Path_1245" data-name="Path 1245" d="M15.306,0H11.4V-25.888L3.569-23.012v-3.527L14.7-30.717h.609Z" transform="translate(938.33 282.049)" fill="#487dc7" opacity="0.5"/>
    <path id="Path_1246" data-name="Path 1246" d="M15.306,0H11.4V-25.888L3.569-23.012v-3.527L14.7-30.717h.609Z" transform="translate(1036.33 282.049)" fill="#487dc7" opacity="0.5"/>
    <g id="Group_2823" data-name="Group 2823" transform="translate(981.902 230.574)">
      <path id="Path_1166" data-name="Path 1166" d="M30.194,30.134a2.636,2.636,0,0,1-1.867,4.5,2.6,2.6,0,0,1-1.858-.773l-9.344-9.335a2.493,2.493,0,0,1-.285-.338,2.645,2.645,0,0,1,.285-3.387l9.344-9.344a2.625,2.625,0,0,1,1.858-.765,2.632,2.632,0,0,1,1.867,4.5l-3.672,3.672-3.805,3.8Z" transform="translate(-16.357 -10.69)" fill="#00214b"/>
    </g>
  </g>
</svg>
