<svg xmlns="http://www.w3.org/2000/svg" xmlns:xlink="http://www.w3.org/1999/xlink" width="29.99" height="28.832" viewBox="0 0 29.99 28.832">
  <defs>
    <clipPath id="clip-path">
      <path id="Path_497" data-name="Path 497" d="M-20.579,265.82l-2.859,1.588,0,.054v8.727a.71.71,0,0,1-.179.473c-1.744,1.981-4.79,2.939-9.1,2.939s-7.36-.958-9.1-2.939A.71.71,0,0,1-42,276.19v-8.781l-3.919-2.178a.714.714,0,0,1,0-1.248l12.853-7.14a.714.714,0,0,1,.694,0l12.84,7.133a.716.716,0,0,1,.38.631v13.567h-1.428V265.82Zm-4.284,2.381-7.507,4.17a.714.714,0,0,1-.694,0l-7.507-4.17v7.709c1.462,1.491,4.07,2.264,7.854,2.264s6.392-.773,7.854-2.264V268.2ZM-44.1,264.607l11.382,6.324,11.382-6.324-11.382-6.324L-44.1,264.607Z" transform="translate(46.285 -256.752)" fill="#00214b"/>
    </clipPath>
    <clipPath id="clip-path-2">
      <path id="Path_498" data-name="Path 498" d="M-26.715,279.59a3.57,3.57,0,0,1-3.57-3.57c0-1.31,1.041-2.872,3.079-4.8l.491-.466.491.466c2.038,1.931,3.079,3.493,3.079,4.8a3.57,3.57,0,0,1-3.57,3.57Zm-2.142-3.57a2.142,2.142,0,0,0,2.142,2.142,2.142,2.142,0,0,0,2.142-2.142c0-.717-.7-1.841-2.142-3.287-1.44,1.447-2.142,2.571-2.142,3.287Z" transform="translate(30.285 -270.752)" fill="#00214b"/>
    </clipPath>
  </defs>
  <g id="Group_2330" data-name="Group 2330" transform="translate(46.285 -256.752)">
    <g id="Group_2327" data-name="Group 2327" transform="translate(-46.285 256.752)">
      <g id="Group_2326" data-name="Group 2326" clip-path="url(#clip-path)">
        <rect id="Rectangle_298" data-name="Rectangle 298" width="42" height="37" transform="translate(-7.505 -6.678)" fill="#00214b"/>
      </g>
    </g>
    <g id="Group_2329" data-name="Group 2329" transform="translate(-23.436 276.745)">
      <g id="Group_2328" data-name="Group 2328" clip-path="url(#clip-path-2)">
        <rect id="Rectangle_299" data-name="Rectangle 299" width="21.421" height="23.119" transform="translate(-7.141 -7.14)" fill="#00214b"/>
      </g>
    </g>
  </g>
</svg>
