<svg id="edit-pencil" xmlns="http://www.w3.org/2000/svg" width="15.92" height="15.943" viewBox="0 0 15.92 15.943">
  <g id="Group_83" data-name="Group 83" transform="translate(0 0)">
    <path id="Path_153" data-name="Path 153" d="M10.318.183.564,9.937a.673.673,0,0,0-.189.431L.3,15.334a.588.588,0,0,0,.189.441.627.627,0,0,0,.441.168h.01L5.761,15.9a.61.61,0,0,0,.441-.168L16.04,5.894a.64.64,0,0,0,0-.892L11.21.172A.651.651,0,0,0,10.318.183ZM5.488,14.662l-3.916.053.063-4.074,6.51-6.51,3.937,3.937Zm7.476-7.476L9.037,3.249l1.732-1.732L14.7,5.454Z" transform="translate(-0.301 0)" fill="#00214b"/>
  </g>
</svg>
