<svg id="text-line-form" xmlns="http://www.w3.org/2000/svg" width="17.933" height="22.049" viewBox="0 0 17.933 22.049">
  <g id="Group_19" data-name="Group 19" transform="translate(0)">
    <path id="Path_29" data-name="Path 29" d="M57.6.882A.885.885,0,0,0,56.718,0H40.549a.885.885,0,0,0-.882.882V21.167a.885.885,0,0,0,.882.882H56.718a.885.885,0,0,0,.882-.882V.882Zm-16.169.882H55.836V20.285H41.431Z" transform="translate(-39.667)"/>
    <path id="Path_30" data-name="Path 30" d="M127.82,99.167h-7.938a.882.882,0,0,0,0,1.764h7.938a.882.882,0,0,0,0-1.764Z" transform="translate(-114.884 -94.022)"/>
    <path id="Path_31" data-name="Path 31" d="M127.82,189.833h-7.938a.882.882,0,1,0,0,1.764h7.938a.882.882,0,1,0,0-1.764Z" transform="translate(-114.884 -179.985)"/>
    <path id="Path_32" data-name="Path 32" d="M127.82,286.167h-7.938a.882.882,0,0,0,0,1.764h7.938a.882.882,0,0,0,0-1.764Z" transform="translate(-114.884 -271.321)"/>
  </g>
</svg>
