<svg xmlns="http://www.w3.org/2000/svg" xmlns:xlink="http://www.w3.org/1999/xlink" width="88.813" height="81.448" viewBox="0 0 88.813 81.448">
  <defs>
    <linearGradient id="linear-gradient" x1="-1.168" y1="-2.413" x2="1.301" y2="1.958" gradientUnits="objectBoundingBox">
      <stop offset="0" stop-color="#37bdee"/>
      <stop offset="0.566" stop-color="#4b72c1"/>
      <stop offset="1" stop-color="#2d3c59"/>
    </linearGradient>
    <linearGradient id="linear-gradient-2" x1="-0.138" y1="-0.238" x2="1.229" y2="1.722" xlink:href="#linear-gradient"/>
    <linearGradient id="linear-gradient-3" x1="-38.527" y1="-86.418" x2="96.79" y2="216.682" xlink:href="#linear-gradient"/>
    <linearGradient id="linear-gradient-4" x1="-0.354" y1="-0.219" x2="1.505" y2="1.347" xlink:href="#linear-gradient"/>
  </defs>
  <g id="Group_2844" data-name="Group 2844" transform="translate(-0.503 -4.775)">
    <g id="Group_2843" data-name="Group 2843">
      <path id="Path_1178" data-name="Path 1178" d="M49.175,43.7a4.962,4.962,0,0,1-1.712,2.27,4.125,4.125,0,0,1-.4.288l-2.909,2.383L41.81,50.563c-.072.051-.154.1-.227.154h-.01a3.223,3.223,0,0,1-.99.4,2.029,2.029,0,0,1-1.176-.073c-1.083-.381-1.816-1.65-2.352-2.785l-2.218-4.631c-.619-1.32-1.537-2.95-.918-4.085a1.769,1.769,0,0,1,.733-.722,3.347,3.347,0,0,1,.794-.351l.227-.041,3.228-.608,3.291-.619.5-.093a6.29,6.29,0,0,1,2.332-.268,3.044,3.044,0,0,1,2.186,1.1,1.878,1.878,0,0,1,.207.341l1.165,2.434.537,1.125A2.447,2.447,0,0,1,49.175,43.7Z" fill="#00214b"/>
    </g>
    <g id="Group_2840" data-name="Group 2840">
      <path id="Path_1173" data-name="Path 1173" d="M43.493,85.518c-2,1.627-7.362.534-13.684-4.279-5.947-4.529-7.525-6.96-9.68-9.224a42.486,42.486,0,0,1,11.8-4.375c1.519,3.051,5.541,10.688,8.727,12.482C44.053,82.034,45.495,83.891,43.493,85.518Z" fill="url(#linear-gradient)"/>
    </g>
    <g id="Group_2841" data-name="Group 2841">
      <path id="Path_1174" data-name="Path 1174" d="M44.353,64.193C27.53,61.6,16.872,71.2,13.859,71.977c-3.173.815-10.242-2.02-12.178-9.555C-2.881,47.953,6.84,46.3,13.175,42.983c6.7-2.687,11.15-8.462,13.323-12.3A62.451,62.451,0,0,0,31.918,46.8,59,59,0,0,0,42.6,62.581Q43.488,63.466,44.353,64.193Z" fill="url(#linear-gradient-2)"/>
    </g>
    <g id="Group_2842" data-name="Group 2842">
      <path id="Path_1175" data-name="Path 1175" d="M87.387,19.619a.149.149,0,0,0-.021-.072A24.33,24.33,0,0,0,44.1,16.627a22.943,22.943,0,0,1,2.135,1.847A21.679,21.679,0,0,1,57.813,8.8a25.63,25.63,0,0,0-4.5,9.944H46.528c.846.836,1.692,1.764,2.528,2.764h3.692a42.389,42.389,0,0,0-.5,4.25c.919,1.341,1.806,2.754,2.651,4.219-.01-.289-.01-.588-.01-.877a42.592,42.592,0,0,1,.691-7.592H63.6V37.691H58.8c.4.928.784,1.857,1.134,2.775H63.6V50.42a4.7,4.7,0,0,1-.784-.32,33.135,33.135,0,0,1,.526,3.28c.547.031,1.094.052,1.64.052a24.366,24.366,0,0,0,21.93-13.781.158.158,0,0,0,.021-.062,24.27,24.27,0,0,0,.454-19.97ZM63.6,18.742H56.194c1.516-5.776,4.26-9.985,7.406-10.965Zm20.28,0H76.659a25.776,25.776,0,0,0-4.5-9.944A21.62,21.62,0,0,1,83.88,18.742ZM66.375,7.777c3.146.98,5.879,5.189,7.406,10.965H66.375Zm0,13.729h8.014A42.517,42.517,0,0,1,75.07,29.1a41.969,41.969,0,0,1-.866,8.593H66.375Zm0,28.914V40.466h7.117C71.924,45.726,69.335,49.5,66.375,50.42Zm5.787-1.011A24.989,24.989,0,0,0,76.4,40.466h6.87A21.612,21.612,0,0,1,72.162,49.409ZM84.746,37.691H77.051a45.284,45.284,0,0,0,.794-8.593,45.64,45.64,0,0,0-.619-7.592h7.912a21.237,21.237,0,0,1-.392,16.185Z" fill="#00214b"/>
      <path id="Path_1176" data-name="Path 1176" d="M46.085,18.742h.443c-.092-.093-.195-.186-.288-.268C46.188,18.556,46.137,18.649,46.085,18.742Z" fill="url(#linear-gradient-3)"/>
      <path id="Path_1177" data-name="Path 1177" d="M57.9,44.231c-.413-1.207-.877-2.414-1.372-3.621-.567-1.362-1.176-2.723-1.816-4.054-.783-1.609-1.619-3.2-2.5-4.734a58.449,58.449,0,0,0-7.385-10.305c-.722-.774-1.434-1.475-2.156-2.115-3.3-2.971-6.6-4.487-9.439-3.662a4.154,4.154,0,0,0-.9.33c-6.643,3.208-3.961,17.649,2.125,30.265,5.364,11.109,13.492,21.043,19.9,21.043a5.606,5.606,0,0,0,2.475-.557,5.254,5.254,0,0,0,1.434-1c1.7-1.62,2.445-4.343,2.445-7.695a30.306,30.306,0,0,0-.485-5.168A54.361,54.361,0,0,0,57.9,44.231ZM56.173,61.436a2.637,2.637,0,0,1-1.124,1.7c-1.9.918-7.778-2.847-13.709-12.677h-.01q-1.595-2.646-3.177-5.911c-1.083-2.248-1.991-4.384-2.724-6.374C31.5,27.52,32.222,20.661,34.109,19.753a1.647,1.647,0,0,1,.671-.134,3.1,3.1,0,0,1,1.052.206,15.163,15.163,0,0,1,5.426,3.9c.113.114.227.227.34.351q.975,1.021,2.011,2.29A60.434,60.434,0,0,1,50.7,37.691c.1.216.216.433.32.65.35.722.68,1.433.98,2.125A61.039,61.039,0,0,1,54.863,48.1c.382,1.238.681,2.413.918,3.517C56.782,56.155,56.751,59.528,56.173,61.436Z" fill="url(#linear-gradient-4)"/>
    </g>
  </g>
</svg>
