<svg xmlns="http://www.w3.org/2000/svg" width="27.729" height="14.533" viewBox="0 0 27.729 14.533">
  <path id="Path_359" data-name="Path 359" d="M1415.491,2663.837l-5.279-5.279a.815.815,0,0,0-1.152,1.152l3.888,3.888H1402.5a7.256,7.256,0,1,0-.032,1.629h10.478l-3.888,3.888a.815.815,0,0,0,1.152,1.152l5.279-5.279a.815.815,0,0,0,0-1.152Zm-20.224,6.067a5.637,5.637,0,1,1,5.6-6.3h-5.6a.814.814,0,1,0,0,1.629h5.555A5.646,5.646,0,0,1,1395.266,2669.9Z" transform="translate(-1388 -2657)" fill="#000"/>
</svg>
