<svg xmlns="http://www.w3.org/2000/svg" width="28.334" height="28.334" viewBox="0 0 28.334 28.334">
  <path id="Path_843" data-name="Path 843" d="M1150.195,1229.06a1.179,1.179,0,0,0-1-.56h-8.854a1.18,1.18,0,0,0-1.056.653l-3.076,6.152-3.076-6.152a1.181,1.181,0,0,0-1.056-.653h-8.854a1.181,1.181,0,0,0-1.056,1.709l7.485,14.97a7.674,7.674,0,1,0,13.115,0l7.485-14.97A1.181,1.181,0,0,0,1150.195,1229.06Zm-18.852,1.8,5.32,10.64c-.152-.009-.3-.015-.458-.015a7.638,7.638,0,0,0-4.884,1.759l-6.192-12.384Zm4.862,23.611a5.313,5.313,0,1,1,5.313-5.312A5.318,5.318,0,0,1,1136.2,1254.473Zm4.884-11.227a7.688,7.688,0,0,0-1.394-.916,1.164,1.164,0,0,0-.072-.19l-2.1-4.194,3.542-7.083h6.214Zm-1.932,3.812a1.181,1.181,0,0,1,.669,2.153l-1.085.746.405,1.181a1.18,1.18,0,0,1-1.785,1.356l-1.155-.794-1.155.794a1.18,1.18,0,0,1-1.785-1.356l.405-1.181-1.086-.746a1.181,1.181,0,0,1,.669-2.153h1.412l.423-1.232a1.181,1.181,0,0,1,2.233,0l.423,1.232Z" transform="translate(-1122.037 -1228.5)" fill="#69b501"/>
</svg>
