<svg id="Group_94" data-name="Group 94" xmlns="http://www.w3.org/2000/svg" width="30.945" height="22.849" viewBox="0 0 30.945 22.849">
  <path id="Path_167" data-name="Path 167" d="M30.945,40.755a1.155,1.155,0,0,0-1.206-1.088H1.206A1.155,1.155,0,0,0,0,40.755V61.428a1.155,1.155,0,0,0,1.206,1.088H29.739a1.155,1.155,0,0,0,1.206-1.088ZM2.411,60.34V47.447l12.117,9.412a1.165,1.165,0,0,0,.764.254,1.508,1.508,0,0,0,.824-.254l12.418-9.375V60.34Zm26.122-18.5v2.811c-.2.018-.1.036-.121.036l-13.1,9.919L2.452,44.636c-.02-.018-.04-.036-.04-.054V41.843Z" transform="translate(0 -39.667)" fill="#00214b"/>
</svg>
