<svg width="48" height="48" viewBox="0 0 48 48" fill="none" xmlns="http://www.w3.org/2000/svg">
<path id="Facebook" fill-rule="evenodd" clip-rule="evenodd" d="M25.6384 48H2.64923C1.18567 48 0 46.8136 0 45.3506V2.64921C0 1.18585 1.18586 0 2.64923 0H45.351C46.814 0 48 1.18585 48 2.64921V45.3506C48 46.8138 46.8138 48 45.351 48H33.1193V29.4118H39.3585L40.2928 22.1676H33.1193V17.5426C33.1193 15.4453 33.7017 14.016 36.7093 14.016L40.5453 14.0143V7.53509C39.8819 7.44681 37.6048 7.24957 34.9556 7.24957C29.4248 7.24957 25.6384 10.6255 25.6384 16.8252V22.1676H19.3831V29.4118H25.6384V48Z" fill="#4460A0"/>
</svg>
