<svg width="48" height="47" viewBox="0 0 48 47" fill="none" xmlns="http://www.w3.org/2000/svg">
<path id="Github" fill-rule="evenodd" clip-rule="evenodd" d="M23.9985 0C10.746 0 0 10.7871 0 24.0966C0 34.7407 6.876 43.7718 16.4145 46.9584C17.6145 47.1798 18.0525 46.4358 18.0525 45.7973C18.0525 45.2251 18.0315 43.7101 18.0195 41.6996C11.343 43.1559 9.9345 38.4694 9.9345 38.4694C8.844 35.6864 7.2705 34.9455 7.2705 34.9455C5.091 33.4501 7.4355 33.4802 7.4355 33.4802C9.843 33.6504 11.1105 35.9635 11.1105 35.9635C13.2525 39.6455 16.728 38.5823 18.096 37.9649C18.3135 36.4078 18.9345 35.3461 19.62 34.7437C14.2905 34.1353 8.688 32.0691 8.688 22.8362C8.688 20.2053 9.6225 18.0548 11.1585 16.3696C10.911 15.7597 10.0875 13.3111 11.3925 9.99346C11.3925 9.99346 13.4085 9.3459 17.9925 12.4632C19.908 11.9286 21.96 11.662 24.0015 11.6515C26.04 11.662 28.0935 11.9286 30.0105 12.4632C34.5915 9.3459 36.603 9.99346 36.603 9.99346C37.9125 13.3111 37.089 15.7597 36.8415 16.3696C38.3805 18.0548 39.309 20.2053 39.309 22.8362C39.309 32.0917 33.6975 34.1293 28.3515 34.7256C29.2125 35.4696 29.9805 36.9394 29.9805 39.1877C29.9805 42.4089 29.9505 45.0067 29.9505 45.7973C29.9505 46.4419 30.3825 47.1918 31.6005 46.9554C41.13 43.7628 48 34.7377 48 24.0966C48 10.7871 37.254 0 23.9985 0Z" fill="#3E75C3"/>
</svg>
