<svg xmlns="http://www.w3.org/2000/svg" width="38" height="38" viewBox="0 0 38 38">
  <g id="Group_3005" data-name="Group 3005" transform="translate(-416.472 -164)">
    <g id="Ellipse_8" data-name="Ellipse 8" transform="translate(416.472 164)" fill="#fff" stroke="#d07d1e" stroke-width="1">
      <circle cx="19" cy="19" r="19" stroke="none"/>
      <circle cx="19" cy="19" r="18.5" fill="none"/>
    </g>
    <path id="Path_1228" data-name="Path 1228" d="M4.163,0H1.9V-13.208H4.163ZM1.721-16.711a1.348,1.348,0,0,1,.336-.928,1.26,1.26,0,0,1,.995-.378,1.28,1.28,0,0,1,1,.378,1.334,1.334,0,0,1,.342.928,1.29,1.29,0,0,1-.342.916,1.3,1.3,0,0,1-1,.366,1.283,1.283,0,0,1-.995-.366A1.3,1.3,0,0,1,1.721-16.711Z" transform="translate(432.472 192)" fill="#d07d1e"/>
  </g>
</svg>
