<svg width="44" height="40" viewBox="0 0 44 40" fill="none" xmlns="http://www.w3.org/2000/svg">
<path id="LinkedIn" fill-rule="evenodd" clip-rule="evenodd" d="M44 40H34.2754V25.9384C34.2754 22.2578 32.7542 19.7452 29.4092 19.7452C26.8506 19.7452 25.4278 21.4407 24.7655 23.0749C24.5171 23.6614 24.5559 24.4785 24.5559 25.2955V40H14.9219C14.9219 40 15.0461 15.0912 14.9219 12.827H24.5559V17.0916C25.1251 15.227 28.2036 12.5658 33.1164 12.5658C39.2114 12.5658 44 16.4744 44 24.8908V40ZM5.17921 9.42819H5.11712C2.0127 9.42819 0 7.35096 0 4.71794C0 2.03368 2.0722 0 5.23871 0C8.40263 0 10.3481 2.02856 10.4102 4.71025C10.4102 7.34328 8.40263 9.42819 5.17921 9.42819ZM1.10986 12.827H9.68583V40H1.10986V12.827Z" fill="#007EBB"/>
</svg>
