<svg xmlns="http://www.w3.org/2000/svg" width="30.42" height="33.536" viewBox="0 0 30.42 33.536">
  <g id="Group_2356" data-name="Group 2356" transform="translate(-2.563 25.323)">
    <path id="Path_510" data-name="Path 510" d="M7.916-19.8c.911,0,1.554-.229,1.554-1.6a8.505,8.505,0,0,0-1.554-3.93A7.291,7.291,0,0,0,6.244-21.4,1.629,1.629,0,0,0,7.916-19.8Z" transform="translate(1.86 0)" fill="#00214b"/>
    <path id="Path_511" data-name="Path 511" d="M12.567-19.8c.912,0,1.554-.229,1.554-1.6a8.505,8.505,0,0,0-1.554-3.93A7.291,7.291,0,0,0,10.9-21.4,1.629,1.629,0,0,0,12.567-19.8Z" transform="translate(4.211 0)" fill="#00214b"/>
    <path id="Path_512" data-name="Path 512" d="M17.582-19.8c.911,0,1.554-.229,1.554-1.6a8.505,8.505,0,0,0-1.554-3.93A7.291,7.291,0,0,0,15.91-21.4,1.629,1.629,0,0,0,17.582-19.8Z" transform="translate(6.745 0)" fill="#00214b"/>
    <path id="Path_513" data-name="Path 513" d="M32.983-3.741v-7.251a2.874,2.874,0,0,0-2.872-2.871h-4.23V-19.8a1.053,1.053,0,0,0-1.054-1.052h-.846A1.052,1.052,0,0,0,22.929-19.8v5.942h-4.6V-19.8a1.052,1.052,0,0,0-1.052-1.052h-.846A1.053,1.053,0,0,0,15.38-19.8v5.942H11.33V-19.8a1.052,1.052,0,0,0-1.052-1.052H9.43A1.052,1.052,0,0,0,8.378-19.8v5.942H5.434a2.873,2.873,0,0,0-2.871,2.871v7.251A2.857,2.857,0,0,0,3.442-1.68,2.86,2.86,0,0,0,2.563.381v2.7A2.874,2.874,0,0,0,5.434,5.956H30.111a2.876,2.876,0,0,0,2.872-2.872V.381A2.861,2.861,0,0,0,32.1-1.68,2.858,2.858,0,0,0,32.983-3.741ZM4.184-10.7a7.15,7.15,0,0,1,.441-1.189c11.862-.5,24.659-.414,26.241.569A12.49,12.49,0,0,0,31.3-8.777c.021.086.044.185.066.28v.187c-3.074-1.234-11.871-1.9-14.594-1.713A12.246,12.246,0,0,0,10.12-7.9,6.8,6.8,0,0,1,5.843-6.556a1.635,1.635,0,0,1-1.659-.81ZM31.362.381v2.7a1.253,1.253,0,0,1-1.251,1.251H5.434A1.251,1.251,0,0,1,4.184,3.084V.381A1.251,1.251,0,0,1,5.434-.87H30.111A1.253,1.253,0,0,1,31.362.381ZM5.434-2.49A1.251,1.251,0,0,1,4.184-3.741V-5.6a3.588,3.588,0,0,0,1.659.361,8.065,8.065,0,0,0,4.978-1.546,11,11,0,0,1,6.033-1.924c2.951-.2,12.231.611,14.352,1.775.036.02.1.05.155.078v3.115A1.253,1.253,0,0,1,30.111-2.49Z" transform="translate(0 2.257)" fill="#00214b"/>
  </g>
</svg>
