<svg xmlns="http://www.w3.org/2000/svg" width="127.645" height="159.383" viewBox="0 0 127.645 159.383">
  <g id="Group_3018" data-name="Group 3018" transform="translate(-1655.237 -128.138)">
    <path id="Path_1250" data-name="Path 1250" d="M8.543,0H6.363V-14.449L1.992-12.844v-1.969L8.2-17.145h.34Z" transform="translate(1726 223)" fill="#69b501"/>
    <path id="Path_1251" data-name="Path 1251" d="M13.882,0H10.34V-23.48l-7.1,2.609v-3.2L13.33-27.86h.552Z" transform="translate(1769 249)" fill="#00214b"/>
    <path id="Path_1252" data-name="Path 1252" d="M22.215-13.342q0,6.982-2.385,10.377T12.375.43Q7.369.43,4.963-2.89T2.471-12.8v-5.307q0-6.9,2.385-10.248t7.477-3.352q5.049,0,7.434,3.233T22.215-18.5ZM18.24-18.777q0-5.049-1.418-7.358a4.881,4.881,0,0,0-4.49-2.31,4.816,4.816,0,0,0-4.447,2.3q-1.4,2.3-1.439,7.068v6.359q0,5.07,1.472,7.487a4.871,4.871,0,0,0,4.458,2.417,4.8,4.8,0,0,0,4.372-2.277q1.429-2.277,1.493-7.176Z" transform="translate(1741.123 287.092)" fill="#487dc7" opacity="0.5"/>
    <path id="Path_1253" data-name="Path 1253" d="M13.882,0H10.34V-23.48l-7.1,2.609v-3.2L13.33-27.86h.552Z" transform="translate(1652 155.998)" fill="#d07d1e"/>
    <path id="Path_1254" data-name="Path 1254" d="M13.882,0H10.34V-23.48l-7.1,2.609v-3.2L13.33-27.86h.552Z" transform="translate(1700.001 167.998)" fill="#4296d6" opacity="0.5"/>
    <path id="Path_1255" data-name="Path 1255" d="M22.72-13.645q0,7.141-2.439,10.613T12.656.439q-5.12,0-7.581-3.395T2.527-13.1v-5.427q0-7.053,2.439-10.481t7.646-3.428q5.164,0,7.6,3.307t2.5,10.206ZM18.655-19.2q0-5.164-1.45-7.526a4.992,4.992,0,0,0-4.592-2.362,4.926,4.926,0,0,0-4.548,2.351Q6.636-24.39,6.592-19.512v6.5q0,5.186,1.505,7.657a4.982,4.982,0,0,0,4.559,2.472,4.914,4.914,0,0,0,4.471-2.329q1.461-2.329,1.527-7.339Z" transform="translate(1672 208)" fill="#00214b" opacity="0.5"/>
  </g>
</svg>
