<svg xmlns="http://www.w3.org/2000/svg" xmlns:xlink="http://www.w3.org/1999/xlink" width="853.477" height="272.66" viewBox="0 0 853.477 272.66">
  <defs>
    <linearGradient id="linear-gradient" y1="0.5" x2="1" y2="0.5" gradientUnits="objectBoundingBox">
      <stop offset="0.011" stop-color="#d3ecfb"/>
      <stop offset="0.365" stop-color="#42b6e9"/>
      <stop offset="0.54" stop-color="#009ee2"/>
      <stop offset="0.796" stop-color="#0070a3"/>
      <stop offset="0.92" stop-color="#005e8b"/>
    </linearGradient>
    <radialGradient id="radial-gradient" cx="0.49" cy="0.467" r="1.795" gradientTransform="matrix(-0.065, 0.981, -0.199, -0.116, 0.353, 1.405)" gradientUnits="objectBoundingBox">
      <stop offset="0.005" stop-color="#fffbde"/>
      <stop offset="0.346" stop-color="#b8d461"/>
      <stop offset="0.54" stop-color="#93c01f"/>
      <stop offset="0.546" stop-color="#91bf1f"/>
      <stop offset="0.796" stop-color="#51af2e"/>
      <stop offset="0.914" stop-color="#39a935"/>
    </radialGradient>
    <radialGradient id="radial-gradient-2" cx="0.509" cy="0.503" r="0.394" gradientTransform="matrix(1.755, 0.526, -1.086, 0.85, 0.162, -0.193)" gradientUnits="objectBoundingBox">
      <stop offset="0.005" stop-color="#f5af9b"/>
      <stop offset="0.258" stop-color="#ee7f5c"/>
      <stop offset="0.54" stop-color="#e84e1b"/>
      <stop offset="0.568" stop-color="#e74b1c"/>
      <stop offset="0.914" stop-color="#e5332a"/>
    </radialGradient>
    <radialGradient id="radial-gradient-3" cx="0.539" cy="0.487" r="0.424" gradientTransform="matrix(1.273, -0.542, 0.821, 0.84, -0.547, 0.37)" xlink:href="#radial-gradient"/>
    <radialGradient id="radial-gradient-4" cx="0.615" cy="0.599" r="0.526" gradientTransform="matrix(0.695, 0.688, -0.659, 0.726, 0.582, -0.259)" xlink:href="#radial-gradient"/>
    <radialGradient id="radial-gradient-5" cx="0.5" cy="0.5" r="0.357" gradientTransform="translate(-3.296) scale(7.593 1)" xlink:href="#radial-gradient-2"/>
    <linearGradient id="linear-gradient-5" y1="0.5" x2="1" y2="0.5" gradientUnits="objectBoundingBox">
      <stop offset="0.005" stop-color="#cfc2e0"/>
      <stop offset="0.201" stop-color="#af87bc"/>
      <stop offset="0.431" stop-color="#8d4796"/>
      <stop offset="0.54" stop-color="#802f87"/>
      <stop offset="0.55" stop-color="#7c2d83"/>
      <stop offset="0.656" stop-color="#5c1b5f"/>
      <stop offset="0.755" stop-color="#450e45"/>
      <stop offset="0.844" stop-color="#360635"/>
      <stop offset="0.914" stop-color="#320430"/>
    </linearGradient>
    <linearGradient id="linear-gradient-6" x1="-0.001" y1="0.5" x2="0.998" y2="0.5" xlink:href="#linear-gradient-5"/>
    <radialGradient id="radial-gradient-6" cx="0.5" cy="0.5" r="0.477" gradientTransform="translate(-0.053) scale(1.106 1)" xlink:href="#radial-gradient"/>
    <radialGradient id="radial-gradient-7" cx="0.5" cy="0.5" r="0.422" gradientTransform="translate(-0.27) scale(1.54 1)" xlink:href="#radial-gradient"/>
    <radialGradient id="radial-gradient-8" cx="0.5" cy="0.5" r="0.397" gradientTransform="translate(-0.475) scale(1.949 1)" xlink:href="#radial-gradient"/>
  </defs>
  <g id="Group_2728" data-name="Group 2728" transform="translate(-1221.676 -414)">
    <path id="Path_1093" data-name="Path 1093" d="M1569.434,610.043c-.571-2.3-2-4.347-3.222-6.335a27.062,27.062,0,0,1-1.643-3.132c-.3-.681-.942-4.486-.988-1.472.016-1.1.015-2.209.009-3.313,0-.127-.021-1.763-.033-.868-.051,3.239-.255,6.5.688,9.637.677,2.245,2.136,4.238,3.333,6.227a22.1,22.1,0,0,1,1.565,3.208c.369.921.522,4.518.714,1.508-.092,1.455.087,3.533.014,4.669A33.775,33.775,0,0,0,1569.434,610.043Z" transform="translate(28.996 15.325)" fill="url(#linear-gradient)"/>
    <path id="Path_1094" data-name="Path 1094" d="M1504.909,587v-.843c0,.124-.03.228-.037.35a13.305,13.305,0,0,0-3.336-7.627c-6.132-6.837-17.334-7.029-19.31-17.444.652,3.428-.655,7.249,0,10.708,2.064,10.878,16.245,11.654,21.109,19.78-3.914,6.764-14.184,8.106-20.078,13.439-4.233,3.828-2.785,15.568-1.031,20.32-.944-2.553.422-5.985.307-8.886,5.083-8.326,21.16-7.3,22.355-20.3.007.063.03.115.035.178v-.827c.014-.247.036-.485.038-.741A76.918,76.918,0,0,0,1504.909,587Z" transform="translate(21.955 12.507)" fill="url(#linear-gradient)"/>
    <path id="Path_1095" data-name="Path 1095" d="M1612.079,571.819c.051-1.25-.059-2.53-.071-3.65-.032-3.326-2.636-5.64-5-7.639-2.273-1.922-7.042-4.163-7.786-7.3.361,1.52-.364,3.307,0,4.843.634,2.667,4.366,4.621,6.367,6.165,2.041,1.574,4.4,3.39,5.634,5.746-.129.2-.269.4-.422.6a8.833,8.833,0,0,0-1.408-.893c-1.952-.99-7.01-2.829-7.188,1.122-.094,2.069-.459,4.669.326,6.633,1.6,4,6.717.053,8.259-1.678.075-.082.124-.181.191-.268,3.72,2.633,3.065,5.665,2.287,10.172-.271,1.572.269,3.282,0,4.843C1614.223,584.953,1615.992,576.508,1612.079,571.819Zm-8.814,1.882c.976-.65,2.467-.505,3.858-.088C1605.675,574.314,1604.224,574.491,1603.264,573.7Z" transform="translate(32.017 11.811)" fill="url(#linear-gradient)"/>
    <path id="Path_1096" data-name="Path 1096" d="M1287.893,665.2c4.8,2.262,10.169,1.8,15.29-2.4,3.882-3.183,6.264-7.479,8.886-12.916,1.586-3.29,3.4-7.288,5.716-8.9,1.918,2.761,2.392,8.254,3.008,12.129.973,6.135,2.156,13.367,6.614,14.449,2.8.681,5.624,1.5,8.606.958,5.818-1.059,10.353-9.89,12.958-17.9-.126.386-4.031-1.31-4.188-.826-3.461,10.636-13.423,25.766-17.964,12.823-2.229-6.358-1.529-20.383-6.813-22.356.036,0,.069-.005.105,0l-.35-.068a2.524,2.524,0,0,0-.258-.077,20.73,20.73,0,0,0-3.458-.656l-.12-.024a.545.545,0,0,1,.05.024,5.073,5.073,0,0,0-2.087.346c-3.679,1.475-7.049,11.789-9.466,16.1-2.9,5.166-10.3,11.587-13.943,9.237-3.018-1.949-3.71-7.294-3.79-12.358-.147-9.321,1.957-22.36-4.488-25.959-3.526-1.966-7.349-1.482-10.786,3.011-5.054,6.607-8.554,15.809-14.156,21.4a10.07,10.07,0,0,1-3.826,2.413,1.7,1.7,0,0,1-.3.072,9.916,9.916,0,0,1-2.5-2.7c-2.453-3.254-4.411-4.244-7.7-4.861-3.659-.683-6.863.894-9.7-2.859-3.053-4.043-4.17-10.753-7.368-14.781-.93-1.173-3.278.318-4.187-.826,3,3.783,4.408,9.222,6.79,13.841,1.936,3.75,5.118,4.441,8.193,5.048,3.272.646,6.63-.685,9.053,2.579,2.382,3.208,4.485,4.513,7.695,5.13,5.593,1.076,9.607-3.109,14.005-10.2,2.975-4.795,7.451-15.184,12-17.184C1287.415,633.638,1277.457,660.29,1287.893,665.2Z" transform="translate(0 17.961)" fill="url(#radial-gradient)"/>
    <path id="Path_1097" data-name="Path 1097" d="M1564.182,520.8q.168-.272.336-.542c-.028.029-.056.05-.085.077a12.844,12.844,0,0,0,.955-2.219c.822-2.633-2.482-3.71-3.154-5.923a44.617,44.617,0,0,1,5.232-1.8,10.88,10.88,0,0,0,5.242-4.489.2.2,0,0,1-.01.023l.079-.128c.1-.155.209-.308.309-.465a39.019,39.019,0,0,0,2.161-3.525c1.321-2.686-.125-4.215-1.7-6.385a14.613,14.613,0,0,1-2.943-8.41,5.3,5.3,0,0,1,.28-1.165q1.881-2.561,3.732-5.144A162.43,162.43,0,0,0,1585.8,463.08c-.541,1-1.776,2.681-2.469,3.964-4.058,7.515-9.909,13.823-14.146,21.218-1.713,2.99-1,5.434.324,8.487,1.12,2.579,3.767,4.74,3.652,7.43-1.967,1.712-4.247,2.473-7.073,3.351a6.958,6.958,0,0,0-3.7,2.611c.019-.05.029-.1.051-.148l-.3.49c-.117.168-.232.337-.346.519-.535.853-1.076,1.7-1.565,2.569l-.334.54c.027-.038.062-.064.089-.1-.169.318-.33.641-.476.972-1.179,2.658,2.255,3.94,2.968,6.392-.424.1-.875.178-1.366.273-2.018.389-3.706,2.108-5.267,3.335a9.465,9.465,0,0,0-1.823,1.947c.015-.031.027-.066.043-.1l-.161.258c-.505.719-.955,1.483-1.432,2.259-.1.158-.18.323-.271.485l-.645,1.039c.077-.1.167-.2.246-.3-2.338,4.771-2.153,10.552-4.039,15.664a7.913,7.913,0,0,1-2.465,1.583c-1.232.521-1.357,3.612-2.548,4.117,3.332-1.409,5.072-4.983,6.789-8,1.516-2.659,2.16-5.773,2.84-8.722.443-1.919.427-4.191.894-6.217a13.119,13.119,0,0,1,6.092-3.4,4.133,4.133,0,0,0,2.767-1.572c-.043.089-.068.171-.117.265l.385-.623c.172-.243.345-.5.529-.8C1563.362,522.178,1563.788,521.5,1564.182,520.8Z" transform="translate(27.236 4.163)" fill="url(#radial-gradient-2)"/>
    <path id="Path_1098" data-name="Path 1098" d="M1644.52,535.129a21.989,21.989,0,0,0-11.987-11.9c-4.186-1.611-7.8-1.316-12.083-.6-2.595.431-5.668,1.051-8.037-.064-.144-3.169,1.957-6.587,3.238-9.241,2.03-4.2,4.4-9.182,1.693-13.627-1.7-2.793-3.351-5.679-5.723-7.958-4.626-4.447-11.788-3.528-17.205-1.394.261-.1,2.3,4.2,2.625,4.069,7.2-2.834,21.033-2.512,18.526,8.5-1.23,5.408-7.962,12.481-5.063,18.128-.024-.031-.052-.057-.076-.09l.22.34c.049.089.094.178.151.266a38.933,38.933,0,0,0,2.178,3.348l.076.117a.447.447,0,0,1-.025-.057,8.366,8.366,0,0,0,1.644,1.614c3.284,2.37,10.272-.366,13.912-.638,4.364-.326,12.5,2.555,14.063,6.987,1.291,3.675-.588,7.2-2.78,10.042-4.035,5.231-11.329,10.554-8.324,18.092,1.646,4.122,4.592,7.161,9.042,7.67,6.545.748,13.132-1.268,19.616.512a11.076,11.076,0,0,1,3.8,1.985,2.571,2.571,0,0,1,.246.218,12.854,12.854,0,0,1,.588,3.641,17.463,17.463,0,0,0,3.342,9.315c2.311,3.535,5.3,5.439,5.655,9.941.386,4.851-1.8,9.49-1.3,14.459.143,1.445,2.483,2.658,2.624,4.069-.465-4.666.948-8.857,1.3-13.444.283-3.726-1.684-6.854-3.61-9.842-2.05-3.181-5.04-5.354-5.321-9.233a18.085,18.085,0,0,0-3.218-9.456c-3.518-5.422-8.244-6.6-14.535-6.514-4.255.055-12.067,1.878-16.2-.954C1630.841,552.827,1649.793,546.837,1644.52,535.129Z" transform="translate(31.619 6.326)" fill="url(#radial-gradient-3)"/>
    <path id="Path_1099" data-name="Path 1099" d="M1398.99,654.3c.459-.443.906-.92,1.372-1.411.192-.2.358-.4.531-.6q.526-.557,1.053-1.112c-.145.143-.307.258-.462.384a12.539,12.539,0,0,0,2.474-7.158,30.731,30.731,0,0,0-.505-5.6c-.155-1.526.9-3.1,1.882-4.392l1.136-1.1c1.049-1.013,2.382-2.6,3.2-3.4-3.065,2.957-6.364,5.838-8.623,9.488-1.257,2.031-.786,3.694-.5,5.908a15.042,15.042,0,0,1-.734,7.187c-4.193,1.58-10.407-.7-14.5-.417-1.211.086-2.171,3.433-3.333,3.514,4.19-.293,8.227.843,12.4.83a6.136,6.136,0,0,0,4.354-1.9c-.022.033-.039.066-.061.1Z" transform="translate(13.599 18.316)" fill="url(#radial-gradient-4)"/>
    <path id="Path_1100" data-name="Path 1100" d="M1340.506,575.166c0-.214,0-.425,0-.639-.009.039-.022.073-.031.111a12.794,12.794,0,0,0-.356-2.389c-.687-2.672-4.064-1.849-5.8-3.377a44.625,44.625,0,0,1,3.5-4.285,10.891,10.891,0,0,0,2.095-6.576.172.172,0,0,1,0,.024v-.151c.008-.185.016-.372.018-.559a39.225,39.225,0,0,0-.018-4.133c-.291-2.98-2.324-3.518-4.8-4.537a14.616,14.616,0,0,1-6.928-5.6,5.221,5.221,0,0,1-.375-1.138c.167-2.112.318-4.225.465-6.339a162.553,162.553,0,0,0,.226-20.869c.067,1.137-.1,3.214-.013,4.67.5,8.525-1.151,16.969-.861,25.486.117,3.444,2.008,5.15,4.743,7.046,2.31,1.6,5.7,2.048,7.016,4.4-.771,2.491-2.31,4.338-4.25,6.572a6.958,6.958,0,0,0-1.769,4.166c-.01-.053-.026-.1-.034-.151v.575c-.011.205-.019.41-.022.624-.005,1.007-.021,2.008.022,3.008v.635c0-.046.019-.087.023-.132.024.36.058.719.107,1.078.4,2.88,3.991,2.163,5.887,3.872-.306.312-.651.613-1.018.951-1.51,1.394-2.042,3.744-2.723,5.609a9.462,9.462,0,0,0-.525,2.614c0-.035-.012-.069-.014-.105v.3c-.052.878-.032,1.764-.029,2.675,0,.185.017.369.025.554,0,.408,0,.815,0,1.224.013-.125.039-.255.054-.381.524,5.287,3.723,10.106,4.811,15.445a7.929,7.929,0,0,1-1.264,2.643c-.773,1.091.747,3.786,0,4.843,2.091-2.952,1.69-6.907,1.564-10.372-.111-3.058-1.2-6.047-2.176-8.912-.634-1.864-1.842-3.787-2.511-5.756a13.115,13.115,0,0,1,3.391-6.1,4.133,4.133,0,0,0,1.525-2.793c.011.1.032.182.039.286v-.731c.02-.3.029-.61.029-.96C1340.532,576.766,1340.538,575.963,1340.506,575.166Z" transform="translate(8.985 8.543)" fill="url(#radial-gradient-5)"/>
    <path id="Path_1101" data-name="Path 1101" d="M1262.232,554.925s-15.938-1.874-22.823,11.588c-3.135,6.13-7.969-3.427-4.544-8.273s7.74-9.2,17.342-8.929C1261.163,549.567,1262.232,554.925,1262.232,554.925Z" transform="translate(1.019 11.477)" fill="#7f4794"/>
    <path id="Path_1102" data-name="Path 1102" d="M1440.375,595.531s-6.058-13.182-19.689-12.16c-6.208.466-1.108-7.763,4.246-7.4s10.746,1.641,15.055,9.182C1444.006,592.184,1440.375,595.531,1440.375,595.531Z" transform="translate(16.64 13.739)" fill="#7f4794"/>
    <path id="Path_1103" data-name="Path 1103" d="M1414.435,546.141C1405.031,543.328,1396.5,532,1399.2,522c-.621,2.294-3.066,4.116-3.694,6.437-2.695,10,5.834,21.328,15.237,24.138C1411.336,552.755,1413.947,545.994,1414.435,546.141Z" transform="translate(14.703 9.161)" fill="#e9562e"/>
    <g id="Group_2723" data-name="Group 2723" transform="translate(1953.911 560.763)">
      <path id="Path_1104" data-name="Path 1104" d="M1933.141,657.961l33.184-2.472,28.46-2.129,22.678-26.54-87.472-74.742-5.2-2.733L1901.754,660.3l1.111-.086Z" transform="translate(-1896.221 -549.282)" fill="#69b501"/>
      <path id="Path_1105" data-name="Path 1105" d="M1954.388,571.148a215.712,215.712,0,0,1-51.61,87.217l30.277-2.253a239.918,239.918,0,0,0,43.515-66.011Z" transform="translate(-1896.135 -547.432)" fill="#fff"/>
      <path id="Path_1106" data-name="Path 1106" d="M1994.884,642.948a242.53,242.53,0,0,0,13.643-23.838L1987.4,601.06a215.328,215.328,0,0,1-26.126,50.042l28.46-2.13Z" transform="translate(-1891.172 -544.895)" fill="#fff"/>
      <path id="Path_1107" data-name="Path 1107" d="M1933.141,653.164l33.184-2.472,28.46-2.13,14.811-17.334-.661-.062c-34.038-3.22-67.141-9.569-96.882-25.27l-10.3,49.608,1.111-.087Z" transform="translate(-1896.221 -544.484)" fill="#c4dbea" style="mix-blend-mode: multiply;isolation: isolate"/>
      <path id="Path_1108" data-name="Path 1108" d="M1925.226,549.349c6.943,1.443,7.414,27.451,1.051,58.089s-17.148,54.311-24.091,52.868-7.415-27.448-1.052-58.087S1918.282,547.909,1925.226,549.349Z" transform="translate(-1896.654 -549.287)" fill="#69b501"/>
      <path id="Path_1109" data-name="Path 1109" d="M1911.339,648.777c5.022-9.554,10.161-24.887,13.828-42.551,3.458-16.656,4.894-31.935,4.371-42.651C1923.384,571.777,1904.109,598.719,1911.339,648.777Z" transform="translate(-1895.544 -548.075)" fill="#70a7c3" style="mix-blend-mode: multiply;isolation: isolate"/>
      <path id="Path_1110" data-name="Path 1110" d="M1928.113,552.037l-4.188-2.2c10.751,11.545,23.243,21.26,36.609,29.905Z" transform="translate(-1894.341 -549.24)" fill="#fff" style="mix-blend-mode: soft-light;isolation: isolate"/>
    </g>
    <g id="Group_2726" data-name="Group 2726" transform="translate(1770.951 472.581)">
      <path id="Path_1111" data-name="Path 1111" d="M1786.866,468.529s-11.778,10.9-6.016,24.879c2.624,6.365-7.781,3.832-9.24-1.92s-1.969-11.863,4.477-18.984C1782.1,465.862,1786.866,468.529,1786.866,468.529Z" transform="translate(-1724.379 -468)" fill="#7f4794"/>
      <g id="Group_2724" data-name="Group 2724" transform="translate(12.586 71.92)">
        <path id="Path_1112" data-name="Path 1112" d="M1871.93,575.284c.705-8.448-11.677-10.434-14.009-10.925-1.485-.313,10.489,5.128,3.9,18.013-6.567,12.841-18.373,26.574-7.836,32.973,2.251,1.365,5.743,1.966,9.043,1.991l.188.037a.676.676,0,0,1-.1-.037,21.748,21.748,0,0,0,5.885-.688c10.162-2.947,18.307-11.458,27.595-16.193,11.612-5.923,24.157-3.111,24.534,11.283.016.687,8.02,1.1,8.035,1.67-.376-14.428-13.724-16.2-25.413-17.573-10.906-1.278-20.054,5.53-28.537,11.3-4.46,3.033-9.781,6.942-15.353,8.2C1854.5,608.893,1871.224,583.731,1871.93,575.284Z" transform="translate(-1730.255 -531.747)" fill="#6b3b7d"/>
        <path id="Path_1113" data-name="Path 1113" d="M1842.45,556.807s3.752,1.44,1.857,6.923c-2.938,8.494-5.714,17.044-8.6,25.556-2.407,7.086-7.4,15.168-6.5,22.817.425,3.616,9.614,6.586,9.614,6.586s-2.181-2.044-1.513-6.52a59.726,59.726,0,0,1,3.9-13.988c4.7-11.519,6.966-20.836,11.083-32.578C1853.692,558.149,1842.45,556.807,1842.45,556.807Z" transform="translate(-1732.01 -532.386)" fill="#6b3b7d"/>
        <path id="Path_1114" data-name="Path 1114" d="M1747.638,535.966c-.377-1.287-7.689-.484-8.036-1.669,4.264,14.541,24.289,15.582,36.977,15.223,3.99-.113,7.97-.471,11.96-.588,2.142-.065,10.2,1.645,11.688,2.221,8.844,3.442,16.838,10.637,16.531,20.574-.018.534,7.033.878,7.021,1.289.545-17.569-18.966-21.942-32.666-24.644C1776.622,545.511,1753.17,554.826,1747.638,535.966Z" transform="translate(-1739.602 -534.296)" fill="#6b3b7d"/>
        <path id="Path_1115" data-name="Path 1115" d="M1849.634,558.563a19.532,19.532,0,0,0-6.56-1.836c-.443-.09-.934-.154-.744-.089-4-.317-6.338,1.987-8.68,5.585-4.661,7.164-6.794,24.793-16.045,28.47-4.788-5.27-.687-10.916.281-19.454,1.228-10.848-8.071-16.125-8.019-16.011,5.547,12.217-6.867,33.354,3.461,36.119l-.142,0s5.274,1.107,7.067,1.238,8.516-.972,12.016-6.506c3.652-5.772,5.743-23.084,13.365-27.145C1846.647,558,1849.634,558.563,1849.634,558.563Z" transform="translate(-1733.71 -532.52)" fill="#7f4794"/>
        <path id="Path_1116" data-name="Path 1116" d="M1855.281,563.983c-21.717,1.13-10.188,29.7-13.608,45.562-1.306,6.063-9.557,4.65-12.206,2.87-.016.089,2.486,4.248,9.319,5.667,4.626.961,11.871-1.5,11.715-6.636-.452-15.014-4.728-43.729,10.139-45.673a14.274,14.274,0,0,1,4.708.148C1862.534,565,1858.265,563.825,1855.281,563.983Z" transform="translate(-1731.979 -531.779)" fill="#7f4794"/>
      </g>
      <g id="Group_2725" data-name="Group 2725" transform="translate(69.289 24.169)">
        <path id="Path_1117" data-name="Path 1117" d="M1813.926,501.183c-2.8,9.032-11.9,15.682-4.121,25.185,2.666,3.25,9.32,3.713,13.2,4.377a7.964,7.964,0,0,0,6.609-1.591l-7.5-1.556a8.5,8.5,0,0,1-3.091,1.236c-2.98-2.182-4.321-5.62-4.447-9.827-.18-5.962,5.688-10.694,7.383-16.155C1821.9,503.044,1814.022,500.873,1813.926,501.183Z" transform="translate(-1790.61 -489.357)" fill="#e9562e"/>
        <path id="Path_1118" data-name="Path 1118" d="M1839.789,490.59c-.335-.068-.667-.139-1-.21.043.023.076.054.119.077a15.724,15.724,0,0,0-9.233,1.343c-13.254,6.17,3.748,34.868-11.415,37.957l-2.5.827c2.309.514,4.689.779,6.482,1.085,8.954,1.52,11.989-9.219,11.271-15.972-.561-5.259-2.4-9.781-1.42-15.144.8-4.4,4.829-7.421,9.118-8.414,2.795,2.643,3.864,6.477,4.84,10.371.306,1.207,7.762.567,8.039,1.667-1.3-5.172-2.889-10.505-8.092-12.257.091.015.186.021.277.037-.178-.038-.355-.074-.531-.113-.292-.088-.586-.175-.9-.242C1843.035,491.215,1841.386,490.845,1839.789,490.59Z" transform="translate(-1789.844 -490.279)" fill="#e5332a"/>
        <path id="Path_1119" data-name="Path 1119" d="M1799.375,501.911c-6.644,3.15-8.163,10.65-7.272,17.225,1.372,10.105,5.918,15.649,13.353,22.059,1.834,1.582,6.249.128,8.039,1.668-8.691-7.489-13.368-14.724-13.735-26.6-.3-9.732,8.792-14.756,17.286-14.6.786.2,1.575.391,2.374.557,2.414.5,3.533.713,3.392.659.123.027.244.052.368.08C1815.646,500.422,1806.82,498.382,1799.375,501.911Z" transform="translate(-1791.871 -489.453)" fill="#e5332a"/>
      </g>
      <path id="Path_1120" data-name="Path 1120" d="M1774.4,603.917c.277,10.854-8.7,23.715-20.141,24.321,2.626-.141,5.382,1.81,8.037,1.669,11.443-.6,20.417-13.468,20.14-24.32C1782.417,604.9,1774.411,604.481,1774.4,603.917Z" transform="translate(-1725.773 -456.47)" fill="#e9562e"/>
      <path id="Path_1121" data-name="Path 1121" d="M1749.632,479.494c-3.97,4.5-6.663,10.215-5.055,16.275.33,1.237,7.737.539,8.037,1.667-1.609-6.059,1.084-11.769,5.056-16.275-.2.228-3.678-.806-4.011-.873C1753.288,480.209,1749.9,479.194,1749.632,479.494Z" transform="translate(-1726.634 -467.03)" fill="#e9562e"/>
      <path id="Path_1122" data-name="Path 1122" d="M1739.889,580.922c-2.367,5.111-6.076,10.258-11.889,11.5.983-.208,3.041.674,4.011.874,1.024.215,2.971,1.023,4.026.8,5.814-1.244,9.523-6.391,11.889-11.5C1747.691,583.1,1740.174,580.306,1739.889,580.922Z" transform="translate(-1728 -458.429)" fill="#e9562e"/>
    </g>
    <path id="Path_1123" data-name="Path 1123" d="M1543.9,450.426c.1-2.45-.116-4.958-.139-7.153-.065-6.519-5.165-11.051-9.8-14.971-4.453-3.765-13.8-8.157-15.257-14.3.708,2.977-.712,6.479,0,9.488,1.242,5.227,8.557,9.056,12.477,12.082,4,3.084,8.63,6.643,11.04,11.261-.253.4-.527.793-.829,1.184a17.2,17.2,0,0,0-2.759-1.75c-3.824-1.942-13.736-5.545-14.085,2.2-.184,4.053-.9,9.149.638,13,3.13,7.83,13.163.1,16.184-3.288.147-.163.243-.355.374-.526,7.289,5.159,6.006,11.1,4.481,19.934-.532,3.082.527,6.431,0,9.489C1548.106,476.163,1551.571,459.615,1543.9,450.426Zm-17.271,3.688c1.911-1.274,4.832-.99,7.558-.172C1531.355,455.316,1528.511,455.662,1526.633,454.115Z" transform="translate(25.179 0)" fill="url(#linear-gradient)"/>
    <g id="Group_2727" data-name="Group 2727" transform="translate(1469.793 473.332)">
      <path id="Path_1124" data-name="Path 1124" d="M1456.51,483.25c-.141-5.335-3.02-10.227-5.858-14.557.5.766-.048,3.852-.048,4.745,0,.963-.511,3.9.048,4.744a57.306,57.306,0,0,1,3.719,6.456,26.875,26.875,0,0,1,1.278,3.322,9,9,0,0,1,.4,2.051c.046-.747.132-1.816.294-3.287-.338,3.132.339,6.371,0,9.488A96.959,96.959,0,0,0,1456.51,483.25Z" transform="translate(-1450.391 -468.693)" fill="url(#linear-gradient-5)"/>
      <path id="Path_1125" data-name="Path 1125" d="M1455.611,488.344c-.14,2.307.13,1.529,0,0Z" transform="translate(-1449.952 -467.026)" fill="url(#linear-gradient-6)"/>
    </g>
    <path id="Path_1126" data-name="Path 1126" d="M1490.764,503.329a34.6,34.6,0,0,1-13.284-5.693c.37.268-.048,4.272-.048,4.745,0,.528-.415,4.412.048,4.744a34.617,34.617,0,0,0,13.284,5.694C1490.189,512.7,1491.477,503.481,1490.764,503.329Z" transform="translate(21.681 7.095)" fill="url(#radial-gradient-6)"/>
    <path id="Path_1127" data-name="Path 1127" d="M1483.3,452.535c0-.342-.291-4.633-.046-4.746-7.968,3.634-11.272-7.049-14.235-12.336.5.89-.048,3.748-.048,4.745,0,1.066-.5,3.773.048,4.745,2.963,5.285,6.267,15.97,14.235,12.337C1483.6,457.12,1483.3,452.914,1483.3,452.535Z" transform="translate(20.96 1.82)" fill="url(#radial-gradient-7)"/>
    <path id="Path_1128" data-name="Path 1128" d="M1683.494,459.742a22.642,22.642,0,0,1-9.489-9.49,6.8,6.8,0,0,1-.034,1.39q-.015,1.678-.014,3.355t.014,3.355a5.235,5.235,0,0,0,.034,1.39,22.633,22.633,0,0,0,9.489,9.489c-.28-.146.046-4.374.046-4.744C1683.54,464.073,1683.874,459.941,1683.494,459.742Z" transform="translate(38.365 3.075)" fill="url(#radial-gradient-8)"/>
  </g>
</svg>
