<svg id="waste-can" xmlns="http://www.w3.org/2000/svg" width="19.775" height="21.605" viewBox="0 0 19.775 21.605">
  <g id="Group_7" data-name="Group 7" transform="translate(0)">
    <path id="Path_11" data-name="Path 11" d="M21.845,6.5h1.474v14.37a.739.739,0,0,0,.737.737H37.566a.739.739,0,0,0,.737-.737V6.5h1.842a.737.737,0,1,0,0-1.474H36.633a5.245,5.245,0,0,0-1.339-3.39A5.822,5.822,0,0,0,30.86,0a5.336,5.336,0,0,0-4.3,1.646A4.882,4.882,0,0,0,25.53,5.024H21.845a.737.737,0,1,0,0,1.474Zm5.822-3.906a3.953,3.953,0,0,1,3.181-1.118A4.454,4.454,0,0,1,34.2,2.628a3.82,3.82,0,0,1,.946,2.4H27A3.48,3.48,0,0,1,27.667,2.592ZM36.829,6.5V20.131H24.793V6.5Z" transform="translate(-21.108)" fill="#00214b"/>
    <path id="Path_12" data-name="Path 12" d="M174.845,196.666a.739.739,0,0,0,.737-.737v-8.475a.737.737,0,1,0-1.474,0v8.475A.739.739,0,0,0,174.845,196.666Z" transform="translate(-167.475 -178.623)" fill="#00214b"/>
    <path id="Path_13" data-name="Path 13" d="M282.512,196.666a.739.739,0,0,0,.737-.737v-8.475a.737.737,0,1,0-1.474,0v8.475A.739.739,0,0,0,282.512,196.666Z" transform="translate(-270.475 -178.623)" fill="#00214b"/>
  </g>
</svg>
