<svg xmlns="http://www.w3.org/2000/svg" xmlns:xlink="http://www.w3.org/1999/xlink" width="19" height="21" viewBox="0 0 19 21">
  <defs>
    <clipPath id="clip-path">
      <path id="Path_507" data-name="Path 507" d="M15.222-53.789a.5.5,0,0,1-.5-.5.5.5,0,0,1,.5-.5h8a.5.5,0,0,1,.5.5.5.5,0,0,1-.5.5Zm0,3a.5.5,0,0,1-.5-.5.5.5,0,0,1,.5-.5h6a.5.5,0,0,1,.5.5.5.5,0,0,1-.5.5Zm0-6a.5.5,0,0,1-.5-.5.5.5,0,0,1,.5-.5h3a.5.5,0,0,1,.5.5.5.5,0,0,1-.5.5Z" fill="#00214b"/>
    </clipPath>
  </defs>
  <g id="Group_2683" data-name="Group 2683" transform="translate(-9.722 66.789)">
    <path id="Path_505" data-name="Path 505" d="M28.722-49.289a3.5,3.5,0,0,1-3.5,3.5h-12a3.5,3.5,0,0,1-3.5-3.5v-16a1.5,1.5,0,0,1,1.5-1.5H22.753a1.5,1.5,0,0,1,1.153.54l4.468,5.362a1.5,1.5,0,0,1,.348.96v10.638Zm-1.568-11.5-3.432-4.119v3.619a.5.5,0,0,0,.5.5Zm-15.932-5a.5.5,0,0,0-.5.5v16a2.5,2.5,0,0,0,2.5,2.5h12a2.5,2.5,0,0,0,2.5-2.5v-10a.5.5,0,0,0-.5-.5h-3a1.5,1.5,0,0,1-1.5-1.5v-4a.5.5,0,0,0-.5-.5Z" fill="#00214b"/>
    <g id="Group_2353" data-name="Group 2353">
      <path id="Path_506" data-name="Path 506" d="M15.222-53.789a.5.5,0,0,1-.5-.5.5.5,0,0,1,.5-.5h8a.5.5,0,0,1,.5.5.5.5,0,0,1-.5.5Zm0,3a.5.5,0,0,1-.5-.5.5.5,0,0,1,.5-.5h6a.5.5,0,0,1,.5.5.5.5,0,0,1-.5.5Zm0-6a.5.5,0,0,1-.5-.5.5.5,0,0,1,.5-.5h3a.5.5,0,0,1,.5.5.5.5,0,0,1-.5.5Z" fill="#00214b"/>
      <g id="Group_2352" data-name="Group 2352" clip-path="url(#clip-path)">
        <rect id="Rectangle_311" data-name="Rectangle 311" width="19" height="17" transform="translate(9.722 -62.789)" fill="#00214b"/>
      </g>
    </g>
  </g>
</svg>
