<svg xmlns="http://www.w3.org/2000/svg" width="67" height="54" viewBox="0 0 67 54">
  <g id="Group_3008" data-name="Group 3008" transform="translate(-1302 -493)">
    <rect id="Rectangle_321" data-name="Rectangle 321" width="67" height="36" rx="10" transform="translate(1302 511)" fill="#69b501"/>
    <circle id="Ellipse_264" data-name="Ellipse 264" cx="16" cy="16" r="16" transform="translate(1320 493)" fill="#69b501"/>
    <path id="Path_1057" data-name="Path 1057" d="M6730.3,8980.987h-1.949l-.585-1.7a1.633,1.633,0,0,0-3.086,0l-.584,1.7h-1.951a1.631,1.631,0,0,0-.925,2.976l1.5,1.031-.56,1.633a1.631,1.631,0,0,0,2.467,1.873l1.6-1.1,1.6,1.1a1.632,1.632,0,0,0,2.467-1.873l-.56-1.633,1.5-1.031a1.632,1.632,0,0,0-.925-2.976Zm0,0h-1.949l-.585-1.7a1.633,1.633,0,0,0-3.086,0l-.584,1.7h-1.951a1.631,1.631,0,0,0-.925,2.976l1.5,1.031-.56,1.633a1.631,1.631,0,0,0,2.467,1.873l1.6-1.1,1.6,1.1a1.632,1.632,0,0,0,2.467-1.873l-.56-1.633,1.5-1.031a1.632,1.632,0,0,0-.925-2.976Zm-3.459-7.7.012.024c-.21-.013-.421-.021-.633-.021a10.548,10.548,0,0,0-5.611,1.607.03.03,0,0,1-.011.007,10.4,10.4,0,1,0,6.243-1.618Zm-.622,17.943v0a7.342,7.342,0,1,1,7.342-7.342A7.341,7.341,0,0,1,6726.216,8991.236Zm2.132-10.245-.585-1.7a1.633,1.633,0,0,0-3.086,0l-.584,1.7h-1.951a1.631,1.631,0,0,0-.925,2.976l1.5,1.031-.56,1.633a1.631,1.631,0,0,0,2.467,1.873l1.6-1.1,1.6,1.1a1.632,1.632,0,0,0,2.467-1.873l-.56-1.633,1.5-1.031a1.632,1.632,0,0,0-.925-2.976Z" transform="translate(-5390.338 -8474.148)" fill="#fff"/>
  </g>
</svg>
