<svg xmlns="http://www.w3.org/2000/svg" xmlns:xlink="http://www.w3.org/1999/xlink" width="48.871" height="60.548" viewBox="0 0 48.871 60.548">
  <defs>
    <linearGradient id="linear-gradient" x1="0.096" y1="-0.05" x2="1.027" y2="1.086" gradientUnits="objectBoundingBox">
      <stop offset="0" stop-color="#37bdee"/>
      <stop offset="0.566" stop-color="#4b72c1"/>
      <stop offset="1" stop-color="#2d3c59"/>
    </linearGradient>
  </defs>
  <path id="Path_1183" data-name="Path 1183" d="M57.594,4.7H27.769a6.027,6.027,0,0,0-6.02,6.019v1.766h-.086a6.92,6.92,0,1,0,0,13.839c.029,0,.057-.007.086-.008v2.517h-.086a6.92,6.92,0,1,0,0,13.839c.029,0,.057-.007.086-.008v2.517h-.086a6.92,6.92,0,1,0,0,13.839c.029,0,.057-.007.086-.009v.217a6.027,6.027,0,0,0,6.02,6.02H57.594a6.027,6.027,0,0,0,6.02-6.02V10.722A6.027,6.027,0,0,0,57.594,4.7ZM21.749,56.091c-.029,0-.057-.009-.086-.009a3.979,3.979,0,1,1,0-7.957h.086Zm0-16.348c-.029,0-.057-.009-.086-.009a3.979,3.979,0,1,1,0-7.957h.086Zm0-16.348c-.029,0-.057-.009-.086-.009a3.979,3.979,0,1,1,0-7.957h.086ZM24.69,59.231V48.125H31a1.47,1.47,0,1,0,0-2.941H24.69V31.777H31a1.47,1.47,0,1,0,0-2.941H24.69V15.429H31a1.47,1.47,0,1,0,0-2.941H24.69V10.722a3.083,3.083,0,0,1,3.079-3.078h21.7V62.31h-21.7A3.082,3.082,0,0,1,24.69,59.231Zm35.983,0a3.082,3.082,0,0,1-3.079,3.079H53.531V7.644h4.063a3.082,3.082,0,0,1,3.079,3.078Z" transform="translate(-14.743 -4.703)" fill="url(#linear-gradient)"/>
</svg>
