<svg xmlns="http://www.w3.org/2000/svg" xmlns:xlink="http://www.w3.org/1999/xlink" width="72.305" height="87.214" viewBox="0 0 72.305 87.214">
  <defs>
    <linearGradient id="linear-gradient" x1="-0.181" y1="0.054" x2="0.445" y2="0.456" gradientUnits="objectBoundingBox">
      <stop offset="0" stop-color="#f2e2b1"/>
      <stop offset="1" stop-color="#ed8123"/>
    </linearGradient>
    <clipPath id="clip-path">
      <path id="Path_421" data-name="Path 421" d="M124.633,242.6l-2.59-.484a7.8,7.8,0,0,1-.318-1.361,4.644,4.644,0,0,1-.014-1.253,3.913,3.913,0,0,1,.349-1.176,4.76,4.76,0,0,1,.765-1.125c.279-.306.549-.638.814-.97s.52-.672.765-1.019.488-.7.722-1.059.459-.721.675-1.087a5.886,5.886,0,0,0,.574-1.325,4.926,4.926,0,0,0,.153-.716,3.45,3.45,0,0,0,.026-.689q-.138-1.915-.306-3.826t-.343-3.826c-.116-1.277-.237-2.551-.352-3.826s-.227-2.556-.331-3.837a26.125,26.125,0,0,1,.306-6.725,22.438,22.438,0,0,1,1.959-5.992,19.768,19.768,0,0,1,3.468-4.951,18.733,18.733,0,0,1,4.831-3.611,5.281,5.281,0,0,0,.918-.582,2.372,2.372,0,0,0,.586-.678,2.308,2.308,0,0,0,.271-.869,5.112,5.112,0,0,0-.009-1.165,4.814,4.814,0,0,1,.153-1.821,4.384,4.384,0,0,1,.756-1.508,4.173,4.173,0,0,1,2.792-1.6l2.708.069a4.185,4.185,0,0,0-1.575.523,4.286,4.286,0,0,0-1.238,1.084,4.455,4.455,0,0,0-.765,1.518,4.833,4.833,0,0,0-.153,1.837,5.19,5.19,0,0,1,.009,1.174,2.241,2.241,0,0,1-.856,1.555,5.185,5.185,0,0,1-.918.585,18.807,18.807,0,0,0-4.857,3.638,19.87,19.87,0,0,0-3.49,4.988,22.618,22.618,0,0,0-1.967,6.035,26.373,26.373,0,0,0-.306,6.774q.153,1.936.332,3.865t.354,3.857q.175,1.926.343,3.854t.306,3.856a3.4,3.4,0,0,1-.026.695,5.228,5.228,0,0,1-.153.719,6,6,0,0,1-.256.7,5.391,5.391,0,0,1-.323.635c-.22.37-.447.735-.68,1.1s-.476.718-.725,1.071-.508.692-.765,1.027-.539.661-.82.976a4.9,4.9,0,0,0-.765,1.134,3.931,3.931,0,0,0-.352,1.185,4.712,4.712,0,0,0,.014,1.263A7.839,7.839,0,0,0,124.633,242.6Z" transform="translate(-121.676 -185.52)" fill="url(#linear-gradient)"/>
    </clipPath>
    <linearGradient id="linear-gradient-3" x1="-7.656" y1="-8.868" x2="-2.986" y2="-3.547" xlink:href="#linear-gradient"/>
    <linearGradient id="linear-gradient-4" x1="-6.539" y1="-24.564" x2="-2.371" y2="-9.726" xlink:href="#linear-gradient"/>
    <linearGradient id="linear-gradient-5" x1="-8.508" y1="-85.365" x2="-3.142" y2="-34.219" xlink:href="#linear-gradient"/>
    <linearGradient id="linear-gradient-6" x1="-3.447" y1="-7.078" x2="-1.036" y2="-2.452" xlink:href="#linear-gradient"/>
    <linearGradient id="linear-gradient-7" x1="-2.586" y1="-0.343" x2="0.237" y2="0.403" xlink:href="#linear-gradient"/>
    <linearGradient id="linear-gradient-8" x1="-0.998" y1="-2.471" x2="1.444" y2="2.365" xlink:href="#linear-gradient"/>
    <linearGradient id="linear-gradient-9" x1="-0.551" y1="-2.748" x2="1.337" y2="3.083" xlink:href="#linear-gradient"/>
    <linearGradient id="linear-gradient-10" x1="-1.691" y1="-21.975" x2="2.346" y2="19.425" xlink:href="#linear-gradient"/>
    <linearGradient id="linear-gradient-11" x1="-1.569" y1="-13.961" x2="2.254" y2="12.754" xlink:href="#linear-gradient"/>
    <linearGradient id="linear-gradient-12" x1="-1.971" y1="-19.474" x2="2.653" y2="17.9" xlink:href="#linear-gradient"/>
    <linearGradient id="linear-gradient-13" x1="-1.439" y1="-1.797" x2="2.742" y2="3.15" xlink:href="#linear-gradient"/>
    <linearGradient id="linear-gradient-14" x1="-1.115" y1="-7.743" x2="3.042" y2="13.455" xlink:href="#linear-gradient"/>
    <linearGradient id="linear-gradient-15" x1="-0.895" y1="-8.789" x2="2.813" y2="15.899" xlink:href="#linear-gradient"/>
    <linearGradient id="linear-gradient-16" x1="-0.752" y1="-14.759" x2="2.546" y2="25.421" xlink:href="#linear-gradient"/>
    <clipPath id="clip-path-2">
      <path id="Path_423" data-name="Path 423" d="M248.761,542.525l-2.715-.49a5.352,5.352,0,0,1-1.531-.519,5.746,5.746,0,0,1-1.324-.94,6.21,6.21,0,0,1-1.052-1.3,6.833,6.833,0,0,1-.71-1.6l2.691.459a6.841,6.841,0,0,0,.713,1.616,6.281,6.281,0,0,0,1.058,1.31,5.736,5.736,0,0,0,1.332.947A5.374,5.374,0,0,0,248.761,542.525Z" transform="translate(-241.43 -537.67)" fill="none"/>
    </clipPath>
    <linearGradient id="linear-gradient-17" x1="0.761" y1="2.69" x2="0.485" y2="-0.005" gradientUnits="objectBoundingBox">
      <stop offset="0.37" stop-color="#eea823"/>
      <stop offset="1" stop-color="#c15428"/>
    </linearGradient>
    <linearGradient id="linear-gradient-18" x1="-0.012" y1="0.119" x2="0.779" y2="1.122" gradientUnits="objectBoundingBox">
      <stop offset="0" stop-color="#eea823"/>
      <stop offset="1" stop-color="#c36b1b"/>
    </linearGradient>
    <linearGradient id="linear-gradient-19" x1="-1.163" y1="-1.001" x2="2.735" y2="2.516" xlink:href="#linear-gradient-18"/>
    <linearGradient id="linear-gradient-20" x1="0.58" y1="-0.086" x2="0.5" y2="0.483" gradientUnits="objectBoundingBox">
      <stop offset="0" stop-color="#f7dc14"/>
      <stop offset="1" stop-color="#ed8123"/>
    </linearGradient>
    <clipPath id="clip-path-3">
      <path id="Path_430" data-name="Path 430" d="M162.488,150.53l-2.092-1.139a1.082,1.082,0,0,1-.236-.171l2.094,1.139A1.072,1.072,0,0,0,162.488,150.53Z" transform="translate(-160.16 -149.22)" fill="none"/>
    </clipPath>
    <linearGradient id="linear-gradient-21" x1="-0.104" y1="-0.647" x2="2.592" y2="4.473" xlink:href="#linear-gradient-18"/>
    <linearGradient id="linear-gradient-22" x1="-0.132" y1="-0.251" x2="0.429" y2="0.467" xlink:href="#linear-gradient-20"/>
    <linearGradient id="linear-gradient-23" x1="-2.269" y1="-1.097" x2="6.831" y2="4.151" xlink:href="#linear-gradient-18"/>
    <linearGradient id="linear-gradient-24" x1="0.18" y1="-0.162" x2="0.735" y2="0.947" xlink:href="#linear-gradient-20"/>
    <clipPath id="clip-path-4">
      <path id="Path_437" data-name="Path 437" d="M85.329,277.285l2.092,1.139-.069-.035L85.26,277.25Z" transform="translate(-85.26 -277.25)" fill="none"/>
    </clipPath>
    <linearGradient id="linear-gradient-25" x1="-0.942" y1="-4.016" x2="2.628" y2="7.166" xlink:href="#linear-gradient-18"/>
    <linearGradient id="linear-gradient-26" x1="-0.393" y1="-0.937" x2="0.851" y2="1.064" xlink:href="#linear-gradient-20"/>
    <linearGradient id="linear-gradient-27" x1="-1.18" y1="-0.871" x2="2.788" y2="2.262" xlink:href="#linear-gradient-20"/>
    <linearGradient id="linear-gradient-28" y1="0.5" x2="1" y2="0.5" gradientUnits="objectBoundingBox">
      <stop offset="0" stop-color="#fff"/>
      <stop offset="1" stop-color="#c36b1b"/>
    </linearGradient>
  </defs>
  <g id="Group_436" data-name="Group 436" transform="translate(-89 -776.255)">
    <g id="notification" transform="translate(88.957 776.156)" style="isolation: isolate">
      <g id="Layer_2" data-name="Layer 2" transform="translate(0.043 0.1)">
        <g id="Layer_2-2" data-name="Layer 2">
          <path id="Path_406" data-name="Path 406" d="M124.633,242.6l-2.59-.484a7.8,7.8,0,0,1-.318-1.361,4.644,4.644,0,0,1-.014-1.253,3.913,3.913,0,0,1,.349-1.176,4.76,4.76,0,0,1,.765-1.125c.279-.306.549-.638.814-.97s.52-.672.765-1.019.488-.7.722-1.059.459-.721.675-1.087a5.886,5.886,0,0,0,.574-1.325,4.926,4.926,0,0,0,.153-.716,3.45,3.45,0,0,0,.026-.689q-.138-1.915-.306-3.826t-.343-3.826c-.116-1.277-.237-2.551-.352-3.826s-.227-2.556-.331-3.837a26.125,26.125,0,0,1,.306-6.725,22.438,22.438,0,0,1,1.959-5.992,19.768,19.768,0,0,1,3.468-4.951,18.733,18.733,0,0,1,4.831-3.611,5.281,5.281,0,0,0,.918-.582,2.372,2.372,0,0,0,.586-.678,2.308,2.308,0,0,0,.271-.869,5.112,5.112,0,0,0-.009-1.165,4.814,4.814,0,0,1,.153-1.821,4.384,4.384,0,0,1,.756-1.508,4.173,4.173,0,0,1,2.792-1.6l2.708.069a4.185,4.185,0,0,0-1.575.523,4.286,4.286,0,0,0-1.238,1.084,4.455,4.455,0,0,0-.765,1.518,4.833,4.833,0,0,0-.153,1.837,5.19,5.19,0,0,1,.009,1.174,2.241,2.241,0,0,1-.856,1.555,5.185,5.185,0,0,1-.918.585,18.807,18.807,0,0,0-4.857,3.638,19.87,19.87,0,0,0-3.49,4.988,22.618,22.618,0,0,0-1.967,6.035,26.373,26.373,0,0,0-.306,6.774q.153,1.936.332,3.865t.354,3.857q.175,1.926.343,3.854t.306,3.856a3.4,3.4,0,0,1-.026.695,5.228,5.228,0,0,1-.153.719,6,6,0,0,1-.256.7,5.391,5.391,0,0,1-.323.635c-.22.37-.447.735-.68,1.1s-.476.718-.725,1.071-.508.692-.765,1.027-.539.661-.82.976a4.9,4.9,0,0,0-.765,1.134,3.931,3.931,0,0,0-.352,1.185,4.712,4.712,0,0,0,.014,1.263A7.839,7.839,0,0,0,124.633,242.6Z" transform="translate(-103.059 -157.14)" fill="url(#linear-gradient)"/>
          <g id="Group_425" data-name="Group 425" transform="translate(18.617 28.38)" clip-path="url(#clip-path)">
            <path id="Path_407" data-name="Path 407" d="M124.626,534.642l-2.59-.484a8.307,8.307,0,0,1-.269-1.041,5.635,5.635,0,0,1-.1-.977,4.038,4.038,0,0,1,.092-.918,3.871,3.871,0,0,1,.306-.883l2.591.459a3.893,3.893,0,0,0-.306.889,4.131,4.131,0,0,0-.093.93,5.559,5.559,0,0,0,.1.983,8.485,8.485,0,0,0,.268,1.048" transform="translate(-121.668 -477.563)" fill="url(#linear-gradient-3)"/>
            <path id="Path_408" data-name="Path 408" d="M126.911,524.736l-2.591-.459a2.849,2.849,0,0,1,.153-.274c.058-.09.112-.182.173-.272s.127-.181.2-.271.153-.179.225-.269l2.6.448c-.08.09-.153.181-.227.271s-.136.181-.2.272-.119.182-.173.274-.1.185-.153.277" transform="translate(-123.915 -471.507)" fill="url(#linear-gradient-4)"/>
            <path id="Path_409" data-name="Path 409" d="M131.732,523.659l-2.6-.448h0l2.6.448h0" transform="translate(-127.989 -471.524)" fill="url(#linear-gradient-5)"/>
            <path id="Path_410" data-name="Path 410" d="M131.892,498.568l-2.6-.449c.277-.306.548-.634.81-.964s.516-.669.765-1.015.487-.7.718-1.053.459-.716.672-1.081l.055-.095.054-.1c.018-.034.035-.067.052-.1s.035-.067.052-.1l2.614.415c-.017.034-.034.069-.052.1l-.052.1-.055.1-.055.095c-.217.367-.442.732-.675,1.09s-.475.713-.722,1.061-.5.689-.765,1.022-.536.657-.814.972" transform="translate(-128.125 -446.454)" fill="url(#linear-gradient-6)"/>
            <path id="Path_411" data-name="Path 411" d="M147.819,326.29l-2.614-.415a6,6,0,0,0,.424-1.16,4.9,4.9,0,0,0,.106-.6,3.441,3.441,0,0,0,.012-.576q-.138-1.915-.306-3.826t-.343-3.826c-.116-1.276-.237-2.552-.352-3.826s-.227-2.556-.331-3.837a26.79,26.79,0,0,1-.061-3.416,25.006,25.006,0,0,1,.363-3.272,23.178,23.178,0,0,1,.765-3.093,21.611,21.611,0,0,1,1.163-2.873l2.626.191a21.96,21.96,0,0,0-1.169,2.891,23.487,23.487,0,0,0-.765,3.116,25.114,25.114,0,0,0-.366,3.3,27.17,27.17,0,0,0,.061,3.441q.153,1.936.332,3.865t.354,3.857q.174,1.925.343,3.854t.306,3.856a3.187,3.187,0,0,1-.012.58,4.439,4.439,0,0,1-.107.6,5.784,5.784,0,0,1-.184.6c-.072.194-.153.384-.242.569" transform="translate(-140.859 -278.726)" fill="url(#linear-gradient-7)"/>
            <path id="Path_412" data-name="Path 412" d="M162.156,270.553l-2.626-.191q.306-.628.655-1.224t.732-1.171q.386-.569.807-1.11t.879-1.047l2.645.153q-.459.514-.883,1.055t-.811,1.116q-.386.574-.736,1.179t-.66,1.237" transform="translate(-153.736 -253.521)" fill="url(#linear-gradient-8)"/>
            <path id="Path_413" data-name="Path 413" d="M182.245,245.079l-2.645-.153q.505-.56,1.055-1.079t1.14-.992q.588-.474,1.224-.9t1.3-.8l2.674.13q-.675.38-1.309.81t-1.224.908q-.592.478-1.145,1t-1.062,1.087" transform="translate(-170.734 -232.635)" fill="url(#linear-gradient-9)"/>
            <path id="Path_414" data-name="Path 414" d="M213.084,238.934l-2.674-.13.135-.075.135-.075.136-.072.136-.072.061-.032.061-.034.06-.032.058-.032,2.677.127-.058.032-.06.034-.061.032-.063.032-.136.073-.138.074-.135.073-.135.077" transform="translate(-196.828 -230.289)" fill="url(#linear-gradient-10)"/>
            <path id="Path_415" data-name="Path 415" d="M218.187,234.429l-2.677-.127c.1-.058.2-.115.289-.173s.178-.118.257-.179.153-.121.227-.184a2.634,2.634,0,0,0,.2-.2l2.683.122c-.061.067-.127.132-.2.2s-.153.126-.228.185a3.051,3.051,0,0,1-.259.179c-.092.058-.188.118-.291.176" transform="translate(-201.148 -226.216)" fill="url(#linear-gradient-11)"/>
            <path id="Path_416" data-name="Path 416" d="M224.533,230.974l-2.683-.122c.034-.037.067-.075.1-.115s.06-.08.089-.121.054-.081.078-.124.049-.087.07-.132l2.685.118c-.021.044-.046.089-.07.132s-.052.086-.08.127-.058.081-.089.121-.064.078-.1.116" transform="translate(-206.517 -223.497)" fill="url(#linear-gradient-12)"/>
            <path id="Path_417" data-name="Path 417" d="M226.691,205.485,224,205.367a2.06,2.06,0,0,0,.153-.39,2.721,2.721,0,0,0,.083-.445,4.794,4.794,0,0,0,.021-.513,5.882,5.882,0,0,0-.038-.589,5.071,5.071,0,0,1-.026-.7,4.914,4.914,0,0,1,.069-.667,4.746,4.746,0,0,1,.153-.628,4.384,4.384,0,0,1,.237-.585l2.688.084a4.439,4.439,0,0,0-.237.589,4.552,4.552,0,0,0-.153.634,4.957,4.957,0,0,0-.043,1.378c.021.211.035.409.038.592a4.471,4.471,0,0,1-.021.517,2.787,2.787,0,0,1-.083.448,2.227,2.227,0,0,1-.153.393" transform="translate(-208.338 -198.504)" fill="url(#linear-gradient-13)"/>
            <path id="Path_418" data-name="Path 418" d="M230.958,195.412l-2.688-.084c.044-.092.092-.182.144-.269s.1-.173.153-.257a2.215,2.215,0,0,1,.176-.242c.061-.078.126-.153.193-.23l2.692.078c-.066.074-.132.153-.193.23a2.4,2.4,0,0,0-.178.245c-.057.092-.112.17-.162.259s-.1.179-.153.271" transform="translate(-211.955 -192.982)" fill="url(#linear-gradient-14)"/>
            <path id="Path_419" data-name="Path 419" d="M235.362,189.7l-2.692-.078a3.285,3.285,0,0,1,.24-.245c.087-.078.17-.153.259-.225s.181-.138.275-.2.191-.124.291-.179l2.7.07c-.1.057-.2.118-.294.181s-.187.133-.277.205-.176.153-.26.225a2.852,2.852,0,0,0-.242.248" transform="translate(-215.681 -188.273)" fill="url(#linear-gradient-15)"/>
            <path id="Path_420" data-name="Path 420" d="M242.33,186.071l-2.7-.07c.116-.064.236-.124.357-.178a3.949,3.949,0,0,1,.375-.144c.127-.041.257-.078.39-.109s.266-.052.4-.07l2.708.069c-.138.017-.272.041-.407.07a3.7,3.7,0,0,0-.392.109c-.129.043-.254.09-.377.144s-.242.115-.358.179" transform="translate(-221.576 -185.503)" fill="url(#linear-gradient-16)"/>
          </g>
          <g id="Layer_2-2-2" data-name="Layer 2-2">
            <g id="Group_426" data-name="Group 426" transform="translate(36.946 82.279)" clip-path="url(#clip-path-2)">
              <path id="Path_422" data-name="Path 422" d="M248.761,542.525l-2.715-.49a5.352,5.352,0,0,1-1.531-.519,5.746,5.746,0,0,1-1.324-.94,6.21,6.21,0,0,1-1.052-1.3,6.833,6.833,0,0,1-.71-1.6l2.691.459a6.841,6.841,0,0,0,.713,1.616,6.281,6.281,0,0,0,1.058,1.31,5.736,5.736,0,0,0,1.332.947,5.4,5.4,0,0,0,1.531.522" transform="translate(-241.43 -537.67)" fill="#3a3a3a"/>
            </g>
            <path id="Path_424" data-name="Path 424" d="M270.923,528.93a7.616,7.616,0,0,1-.585,2.224,7.321,7.321,0,0,1-1.182,1.883,6.494,6.494,0,0,1-1.665,1.377,5.835,5.835,0,0,1-2.037.722,5.46,5.46,0,0,1-2.114-.083,5.531,5.531,0,0,1-1.874-.845,6.065,6.065,0,0,1-1.494-1.485,6.755,6.755,0,0,1-.973-2Z" transform="translate(-219.364 -447.988)" fill="url(#linear-gradient-17)"/>
            <path id="Path_425" data-name="Path 425" d="M244.141,528.279l-2.691-.459,11.854-1.78,2.755.442Z" transform="translate(-204.501 -445.541)" fill="#5c5c5c"/>
            <path id="Path_426" data-name="Path 426" d="M158.276,185.844a4.014,4.014,0,0,1,1.667.153,3.938,3.938,0,0,1,1.4.794,4.49,4.49,0,0,1,1.027,1.338,5.534,5.534,0,0,1,.542,1.783c.025.176.044.352.061.528s.034.355.047.534.028.358.04.537.029.363.044.546l.193.06.171.054.153.047.153.041a21.541,21.541,0,0,1,6.075,2.5,17.239,17.239,0,0,1,4.529,4.025,19.3,19.3,0,0,1,2.989,5.51,28.2,28.2,0,0,1,1.442,6.981l.306,3.641.306,3.637q.153,1.818.317,3.632t.335,3.627a4.27,4.27,0,0,0,.243,1.071,3.023,3.023,0,0,0,.225.484,1.735,1.735,0,0,0,.294.381c.435.421.879.834,1.324,1.24s.9.807,1.348,1.2.9.791,1.358,1.186.9.788,1.353,1.185l.266,3.13-47.541,7.152a7.862,7.862,0,0,1-.321-1.378,4.713,4.713,0,0,1-.014-1.263,3.931,3.931,0,0,1,.352-1.185,4.9,4.9,0,0,1,.765-1.134c.282-.315.554-.641.82-.977s.522-.678.773-1.027.491-.706.725-1.071.459-.727.68-1.1a5.377,5.377,0,0,0,.323-.635,6,6,0,0,0,.256-.7,5.232,5.232,0,0,0,.153-.719,3.4,3.4,0,0,0,.026-.695q-.138-1.928-.306-3.856t-.343-3.854q-.179-1.929-.354-3.857t-.321-3.852a26.371,26.371,0,0,1,.306-6.774,22.58,22.58,0,0,1,1.971-6.037,19.868,19.868,0,0,1,3.49-4.988,18.838,18.838,0,0,1,4.86-3.643,5.183,5.183,0,0,0,.918-.585,2.235,2.235,0,0,0,.852-1.551,5.193,5.193,0,0,0-.009-1.174,4.833,4.833,0,0,1,.153-1.837,4.453,4.453,0,0,1,.765-1.518,4.284,4.284,0,0,1,1.234-1.082A4.18,4.18,0,0,1,158.276,185.844Z" transform="translate(-117.372 -157.391)" fill="url(#linear-gradient-18)"/>
            <path id="Path_427" data-name="Path 427" d="M401.414,7.439a1.194,1.194,0,0,1,.612.07,1.386,1.386,0,0,1,.612,1.887L392.78,31.948a1.63,1.63,0,0,1-1.224.984,1.162,1.162,0,0,1-.612-.069,1.388,1.388,0,0,1-.612-1.887l9.862-22.544a1.63,1.63,0,0,1,1.221-.993Z" transform="translate(-330.475 -6.305)" fill="url(#linear-gradient-19)"/>
            <path id="Path_428" data-name="Path 428" d="M388.571.222,388.529.2l-.041-.017-.035-.018c-.029-.011-.06-.018-.09-.028L388.312.12h-.025A.828.828,0,0,0,388.18.1h-.2a1.3,1.3,0,0,0-.133.011,1.438,1.438,0,0,0-.4.121,1.528,1.528,0,0,0-.222.129l-.07.057c-.025.017-.047.035-.07.054l-.024.02-.034.034c-.035.034-.07.069-.1.106h0a1.557,1.557,0,0,0-.223.32V.959c-.023.043-.044.089-.064.135l-9.858,22.535h0a1.8,1.8,0,0,0-.083.236h0c-.009.035-.018.07-.026.107a.3.3,0,0,0-.008.04.716.716,0,0,1-.012.077l-.009.066v.139a.418.418,0,0,0,0,.043v.129c0,.012.008.061.012.092a.077.077,0,0,1,0,.035.7.7,0,0,0,.02.087l.009.037c.008.028.015.054.024.08a.3.3,0,0,0,.015.04.565.565,0,0,0,.029.07c0,.015.012.029.02.044l.031.058.029.049.031.046a.655.655,0,0,0,.038.054l.029.035.049.057c.008,0,.017.015.024.024l.061.057.02.017c.024.018.047.038.073.057a1.116,1.116,0,0,0,.1.061l1.99,1.084a.874.874,0,0,0,.1.063V26.6a1.255,1.255,0,0,1-.623-1.016v-.214a1.683,1.683,0,0,1,.1-.493c.012-.034.026-.067.04-.1h0L388.71,2.228h0c.02-.046.041-.09.066-.135h0a.058.058,0,0,1,0-.014c.029-.052.06-.1.093-.153l.009-.014c.032-.046.067-.089.1-.132l.023-.028a1.123,1.123,0,0,1,.086-.086c.024-.024.049-.047.077-.07l.049-.04a1.642,1.642,0,0,1,.71-.315h.326a1.088,1.088,0,0,1,.141.026h0a1.036,1.036,0,0,1,.138.046l.052.021c.023.011.047.02.07.032Z" transform="translate(-318.995 -0.1)" fill="url(#linear-gradient-20)"/>
            <g id="Group_427" data-name="Group 427" transform="translate(24.507 22.824)" clip-path="url(#clip-path-3)">
              <path id="Path_429" data-name="Path 429" d="M162.488,150.53l-2.092-1.139a1.082,1.082,0,0,1-.236-.171l2.094,1.139a1.072,1.072,0,0,0,.234.171" transform="translate(-160.16 -149.22)" fill="#85583b"/>
            </g>
            <path id="Path_431" data-name="Path 431" d="M71.48,44.186a1.157,1.157,0,0,1,.963.3L87.92,59.04a1.554,1.554,0,0,1,0,2.079,1.531,1.531,0,0,1-.964.566,1.136,1.136,0,0,1-.963-.3L70.519,46.83a1.633,1.633,0,0,1,.961-2.645Z" transform="translate(-59.395 -37.427)" fill="url(#linear-gradient-21)"/>
            <path id="Path_432" data-name="Path 432" d="M74.4,55.162,58.919,40.6a1.116,1.116,0,0,1-.121-.135l-.028-.035a1.214,1.214,0,0,1-.095-.153h0a1.421,1.421,0,0,1-.069-.164l-.014-.04a1.394,1.394,0,0,1-.044-.179h0a1.487,1.487,0,0,1-.02-.187v-.035a1.673,1.673,0,0,1,.04-.406.047.047,0,0,1,0-.012,1.532,1.532,0,0,1,.061-.208h0a1.89,1.89,0,0,1,.1-.228,1.836,1.836,0,0,1,.112-.179c.026-.037.07-.092.083-.109s.026-.032.04-.049a1.706,1.706,0,0,1,.139-.139h0a1.7,1.7,0,0,1,.162-.139h0a1.632,1.632,0,0,1,.219-.127h0l.066-.026a.669.669,0,0,1,.07-.028c.034-.012.067-.023.1-.032a1.377,1.377,0,0,1,.153-.035,1.2,1.2,0,0,1,.165-.011h.043a.972.972,0,0,1,.164.014h.017a.392.392,0,0,1,.09.023h0a1.336,1.336,0,0,1,.214.08l-.034-.017h0l.034.017.04.014-2.089-1.133-.041-.021.031.017H58.5l-.017-.011a1.092,1.092,0,0,0-.116-.047.155.155,0,0,1-.043-.014l-.047-.015h0l-.095-.018h0a1.208,1.208,0,0,0-.167-.015h-.04a1.2,1.2,0,0,0-.165.011H57.8a1.754,1.754,0,0,0-.182.043l-.031.009a1.531,1.531,0,0,0-.767.5,1.783,1.783,0,0,0-.354.729h0a1.683,1.683,0,0,0-.04.416v.026a1.461,1.461,0,0,0,.067.377l.012.037a1.262,1.262,0,0,0,.07.168h0a1.215,1.215,0,0,0,.09.158l.028.035a1.116,1.116,0,0,0,.121.135h.011L72.3,54.019Z" transform="translate(-47.795 -31.2)" fill="url(#linear-gradient-22)"/>
            <path id="Path_433" data-name="Path 433" d="M290.269,11.4a1.4,1.4,0,0,1,.277,0,1.258,1.258,0,0,1,1.056,1.589l-2.668,14.138a1.671,1.671,0,0,1-1.333,1.361,1.211,1.211,0,0,1-.279,0,1.258,1.258,0,0,1-1.055-1.589l2.666-14.146A1.672,1.672,0,0,1,290.269,11.4Z" transform="translate(-242.434 -9.666)" fill="url(#linear-gradient-23)"/>
            <path id="Path_434" data-name="Path 434" d="M279.279,5.133l.032.011a.9.9,0,0,1,.09.031h0c.035.015.07.031.106.049l-.043-.023h0l-1.488-.81-.556-.306h-.009l-.031-.017a1.332,1.332,0,0,0-.214-.078l.014.009a1.236,1.236,0,0,0-.213-.037,1.411,1.411,0,0,0-.279,0l-.04.009a1.233,1.233,0,0,0-.13.031l-.049.012a1.489,1.489,0,0,0-.162.064h-.014l-.023.012c-.026.014-.052.026-.077.041l-.028.015-.083.052h-.02a1.65,1.65,0,0,0-.153.121h0l-.012.014a1.149,1.149,0,0,0-.113.115l-.012.011h0a1.648,1.648,0,0,0-.112.139l-.011.014-.015.026a1.564,1.564,0,0,0-.084.136l-.011.017h0a1.913,1.913,0,0,0-.095.213v.02l-.018.057a1.5,1.5,0,0,0-.055.213l-2.666,14.146a1.335,1.335,0,0,0,.6,1.454l2.094,1.139a1.338,1.338,0,0,1-.6-1.454l2.666-14.146h0c.009-.046.02-.092.032-.136l.014-.047c.009-.028.017-.055.026-.081s.028-.073.043-.109l.012-.026a1.682,1.682,0,0,1,.095-.181c.02-.031.038-.063.06-.093l.012-.017c.037-.051.077-.1.118-.153h0V5.58a1.789,1.789,0,0,1,.132-.132h0a1.734,1.734,0,0,1,.165-.132h0a1.866,1.866,0,0,1,.222-.129h0l.015-.008a1.331,1.331,0,0,1,.164-.063l.037-.011c.047-.012.095-.023.142-.031l.037-.008h0a1.4,1.4,0,0,1,.277,0,1.254,1.254,0,0,1,.2.034l-.017-.008Z" transform="translate(-230.949 -3.365)" fill="url(#linear-gradient-24)"/>
            <g id="Group_428" data-name="Group 428" transform="translate(13.043 42.42)" clip-path="url(#clip-path-4)">
              <path id="Path_435" data-name="Path 435" d="M87.352,278.389,85.26,277.25l.026.014L87.38,278.4l-.028-.014" transform="translate(-85.26 -277.25)" fill="#a36d48"/>
              <path id="Path_436" data-name="Path 436" d="M87.524,278.479,85.43,277.34l.043.021,2.092,1.139-.041-.021" transform="translate(-85.404 -277.326)" fill="#9e6946"/>
            </g>
            <path id="Path_438" data-name="Path 438" d="M15.053,250.933a1.193,1.193,0,0,1,.66.093l11.02,5.065a1.4,1.4,0,0,1,.527,1.925,1.615,1.615,0,0,1-1.194.918,1.175,1.175,0,0,1-.66-.092l-11.02-5.066a1.4,1.4,0,0,1-.525-1.925A1.621,1.621,0,0,1,15.053,250.933Z" transform="translate(-11.599 -212.531)" fill="url(#linear-gradient-25)"/>
            <path id="Path_439" data-name="Path 439" d="M24.263,249.225,13.24,244.16l2.094,1.137,11.022,5.066Z" transform="translate(-11.22 -206.805)" fill="url(#linear-gradient-26)"/>
            <path id="Path_440" data-name="Path 440" d="M3.829,244.639h0a1.184,1.184,0,0,1,.323.093l-2.094-1.139a1.391,1.391,0,0,0-.188-.069,1.35,1.35,0,0,0-.133-.024h0c-.046,0-.093-.009-.139-.011H1.553a.759.759,0,0,0-.153.011,1.436,1.436,0,0,0-.4.121,1.922,1.922,0,0,0-.219.125h0a1.976,1.976,0,0,0-.164.127H.627l-.009.009h0a1.6,1.6,0,0,0-.358.45l-.012.018-.037.072h0a1.387,1.387,0,0,0-.063.153.012.012,0,0,1,0,.008,1.629,1.629,0,0,0-.089.807s0,.012,0,.018a.481.481,0,0,0,.02.1l.009.035a.261.261,0,0,0,.024.081c.009.026.011.032.017.047l.024.064.026.055c0,.017.017.034.026.051s.021.04.034.06l.026.04c.014.021.028.041.043.061l.028.034c.017.02.032.04.051.058l.031.031c.018.018.035.037.055.054l.038.031.057.043a.758.758,0,0,0,.1.063l2.094,1.133a1.217,1.217,0,0,1-.106-.064l-.029-.023c-.023-.017-.046-.034-.067-.052l-.032-.032a.592.592,0,0,1-.054-.054.364.364,0,0,1-.032-.037c-.015-.018-.032-.037-.046-.055s-.02-.029-.029-.043a.567.567,0,0,1-.038-.06.42.42,0,0,1-.026-.044l-.034-.063a.45.45,0,0,0-.021-.047c-.009-.023-.018-.046-.026-.069s-.012-.032-.017-.047-.015-.049-.021-.073-.009-.032-.012-.049-.011-.052-.015-.078,0-.032-.008-.047a.745.745,0,0,1-.009-.084v-.317a.014.014,0,0,1,0-.008,1.739,1.739,0,0,1,.092-.383,1.663,1.663,0,0,1,.069-.162.793.793,0,0,1,.037-.072v.008c.034-.061.07-.122.11-.181h0v.008c.038-.054.078-.1.121-.153h0v.008c.044-.049.09-.1.138-.139h0l.07-.061.014-.032a1.373,1.373,0,0,1,.124-.084l.043-.028a1.63,1.63,0,0,1,.539-.194c.049,0,.1-.009.153-.011h.04C3.734,244.629,3.781,244.639,3.829,244.639Z" transform="translate(-0.043 -206.237)" fill="url(#linear-gradient-27)"/>
          </g>
          <g id="Group_430" data-name="Group 430" transform="translate(21.204 28.424)" opacity="0.6">
            <g id="Group_429" data-name="Group 429" style="mix-blend-mode: overlay;isolation: isolate">
              <path id="Path_441" data-name="Path 441" d="M158.752,186.422a3.381,3.381,0,0,1,1.006.153,3.261,3.261,0,0,1,1.18.667,3.865,3.865,0,0,1,.886,1.156,4.839,4.839,0,0,1,.482,1.584v.008c.021.153.04.323.058.5s.032.347.046.522.028.355.04.533c.009.135.02.272.032.41l.012.153.035.412.395.122.19.058.175.055.153.047h.021l.153.041h.015a20.831,20.831,0,0,1,5.9,2.431,16.54,16.54,0,0,1,4.367,3.877,18.656,18.656,0,0,1,2.894,5.333,27.614,27.614,0,0,1,1.41,6.834l.306,3.641.306,3.637c.1,1.212.21,2.435.317,3.635s.222,2.424.337,3.632a4.922,4.922,0,0,0,.277,1.224,3.892,3.892,0,0,0,.269.579,2.393,2.393,0,0,0,.4.516c.4.39.84.8,1.338,1.252s.983.883,1.355,1.212.716.628,1.071.94l.285.248.046.04,1.12.98.2,2.314-46.438,6.993a7.1,7.1,0,0,1-.153-.781,4.172,4.172,0,0,1-.014-1.1,3.329,3.329,0,0,1,.3-1,4.247,4.247,0,0,1,.67-.993c.28-.314.556-.641.843-1,.249-.306.507-.657.791-1.05.25-.347.493-.707.744-1.1s.479-.765.69-1.113a6.05,6.05,0,0,0,.357-.7,6.518,6.518,0,0,0,.283-.776,5.65,5.65,0,0,0,.171-.8,4.01,4.01,0,0,0,.031-.825c-.092-1.284-.2-2.584-.306-3.865s-.228-2.585-.343-3.857l-.354-3.857c-.116-1.273-.223-2.567-.321-3.848a25.764,25.764,0,0,1,.306-6.617A21.938,21.938,0,0,1,145,203.009a19.209,19.209,0,0,1,3.381-4.835,18.141,18.141,0,0,1,4.7-3.52,5.771,5.771,0,0,0,1.015-.647,2.862,2.862,0,0,0,1.082-1.971,5.754,5.754,0,0,0-.011-1.309,4.248,4.248,0,0,1,.135-1.6,3.809,3.809,0,0,1,.661-1.31,3.581,3.581,0,0,1,1.053-.918,3.5,3.5,0,0,1,1.342-.444,3.224,3.224,0,0,1,.4-.024m0-.612a4.113,4.113,0,0,0-.477.028,4.18,4.18,0,0,0-1.573.52,4.285,4.285,0,0,0-1.234,1.082,4.454,4.454,0,0,0-.765,1.518,4.833,4.833,0,0,0-.153,1.837,5.191,5.191,0,0,1,.009,1.174,2.235,2.235,0,0,1-.854,1.549,5.183,5.183,0,0,1-.918.585,18.837,18.837,0,0,0-4.858,3.644,19.868,19.868,0,0,0-3.49,4.988,22.581,22.581,0,0,0-1.974,6.03,26.372,26.372,0,0,0-.306,6.774q.144,1.924.321,3.853l.354,3.857q.174,1.929.343,3.854t.306,3.856a3.4,3.4,0,0,1-.026.695,5.229,5.229,0,0,1-.153.719,5.991,5.991,0,0,1-.256.7,5.373,5.373,0,0,1-.323.635c-.22.369-.445.73-.68,1.1s-.474.722-.725,1.071-.507.692-.773,1.027-.539.661-.82.977a4.9,4.9,0,0,0-.765,1.134,3.931,3.931,0,0,0-.352,1.185,4.714,4.714,0,0,0,.014,1.263,7.862,7.862,0,0,0,.321,1.378l47.54-7.154-.266-3.13c-.448-.4-.9-.79-1.353-1.185s-.906-.788-1.358-1.186-.9-.8-1.348-1.2-.889-.819-1.324-1.24a1.735,1.735,0,0,1-.294-.381,3.029,3.029,0,0,1-.225-.484,4.27,4.27,0,0,1-.243-1.071q-.171-1.814-.335-3.627t-.317-3.632l-.306-3.637-.306-3.641a28.2,28.2,0,0,0-1.446-6.981,19.3,19.3,0,0,0-2.989-5.51,17.24,17.24,0,0,0-4.529-4.025,21.523,21.523,0,0,0-6.075-2.5l-.153-.041-.153-.047-.171-.054-.193-.06c-.015-.184-.032-.367-.044-.546s-.026-.358-.04-.537-.031-.358-.047-.534-.037-.352-.061-.528a5.535,5.535,0,0,0-.542-1.783,4.491,4.491,0,0,0-1.027-1.338,3.914,3.914,0,0,0-1.4-.794,4.033,4.033,0,0,0-1.191-.181Z" transform="translate(-138.576 -185.81)" fill="url(#linear-gradient-28)"/>
            </g>
          </g>
        </g>
      </g>
    </g>
  </g>
</svg>
