<svg xmlns="http://www.w3.org/2000/svg" xmlns:xlink="http://www.w3.org/1999/xlink" width="88.53" height="63.113" viewBox="0 0 88.53 63.113">
  <defs>
    <linearGradient id="linear-gradient" x1="-0.774" y1="-1.041" x2="3.558" y2="3.536" gradientUnits="objectBoundingBox">
      <stop offset="0" stop-color="#37bdee"/>
      <stop offset="0.566" stop-color="#4b72c1"/>
      <stop offset="1" stop-color="#2d3c59"/>
    </linearGradient>
    <linearGradient id="linear-gradient-2" x1="-1.957" y1="-1.902" x2="2.373" y2="2.674" xlink:href="#linear-gradient"/>
  </defs>
  <g id="Group_2821" data-name="Group 2821" transform="translate(-115.345 -43.8)">
    <g id="Group_2850" data-name="Group 2850" transform="translate(115.345 43.8)">
      <g id="Group_2825" data-name="Group 2825" transform="translate(0 9.94)">
        <g id="Group_2824" data-name="Group 2824">
          <g id="Group_2823" data-name="Group 2823">
            <path id="Path_1166" data-name="Path 1166" d="M41.351,45.813a4.762,4.762,0,0,1-3.373,8.126,4.691,4.691,0,0,1-3.356-1.4L17.743,35.679a4.5,4.5,0,0,1-.514-.61,4.778,4.778,0,0,1,.514-6.119L34.622,12.071a4.741,4.741,0,0,1,3.356-1.381,4.754,4.754,0,0,1,3.373,8.126l-6.633,6.633-6.874,6.858Z" transform="translate(-16.357 -10.69)" fill="url(#linear-gradient)"/>
          </g>
        </g>
      </g>
      <g id="Group_2828" data-name="Group 2828" transform="translate(62.144 9.94)">
        <g id="Group_2827" data-name="Group 2827">
          <g id="Group_2826" data-name="Group 2826">
            <path id="Path_1167" data-name="Path 1167" d="M82.046,32.306a4.68,4.68,0,0,1-1.012,2.923,3.364,3.364,0,0,1-.385.45L63.786,52.542a4.758,4.758,0,1,1-6.729-6.729L67.9,34.956l2.65-2.65-13.49-13.49a4.764,4.764,0,0,1,6.729-6.745L77.148,25.449l3.5,3.5A4.714,4.714,0,0,1,82.046,32.306Z" transform="translate(-55.66 -10.69)" fill="url(#linear-gradient-2)"/>
          </g>
        </g>
      </g>
      <g id="Group_2830" data-name="Group 2830" transform="translate(31.259)">
        <g id="Group_2829" data-name="Group 2829" transform="translate(0)">
          <path id="Path_1168" data-name="Path 1168" d="M59.893,10.522,54.754,29.2l-2.6,9.507L45.166,64.113A4.755,4.755,0,1,1,36,61.592l.032-.112,2.987-10.889v-.016l3.26-11.868L44.893,29.2,50.707,8a4.763,4.763,0,0,1,9.186,2.521Z" transform="translate(-35.821 -4.501)" fill="#00214b"/>
        </g>
      </g>
    </g>
  </g>
</svg>
