<svg xmlns="http://www.w3.org/2000/svg" width="34.038" height="26.78" viewBox="0 0 34.038 26.78">
  <g id="Group_2882" data-name="Group 2882" transform="translate(-686.968 -1169.289)">
    <path id="Path_1184" data-name="Path 1184" d="M720.692,1178.4a9.98,9.98,0,0,0-3.708-5.169,19.183,19.183,0,0,0-9.471-3.726,24.292,24.292,0,0,0-6.738.045,20.212,20.212,0,0,0-7.48,2.542,12.552,12.552,0,0,0-4.279,3.944,7.858,7.858,0,0,0-1.143,6.453,9.584,9.584,0,0,0,3.232,4.923c.613.526,1.28.99,1.948,1.5a14.442,14.442,0,0,1-4.741,5.69,11.359,11.359,0,0,0-1.184.988c-.091.082-.108.245-.159.37a1.06,1.06,0,0,0,.393.109,9.827,9.827,0,0,0,1.262-.239,35.094,35.094,0,0,0,4.871-1.817,31.577,31.577,0,0,0,5.175-2.744.479.479,0,0,1,.337-.051,24.8,24.8,0,0,0,7.6.472,21.093,21.093,0,0,0,8.03-2.3,13.129,13.129,0,0,0,4.7-3.939A7.929,7.929,0,0,0,720.692,1178.4Zm-15.045,9.591h-2.594v-2.626h2.594Zm2.07-7.993a12.017,12.017,0,0,1-1.087.742,1.91,1.91,0,0,0-.993,1.834c.029.569.005,1.142.005,1.725-.1.008-.177.02-.252.02h-2.328a1.076,1.076,0,0,1-.021-.147c0-1,0-2.005.007-3.008a2.065,2.065,0,0,1,.94-1.771c.533-.369,1.073-.729,1.611-1.093a1.681,1.681,0,0,0,.783-1.271,1.5,1.5,0,0,0-.853-1.607,2.685,2.685,0,0,0-2.658.042,2.01,2.01,0,0,0-.966,1.781c-.026.387,0,.778,0,1.181h-2.643c.022-.46.038-.922.068-1.383a4.778,4.778,0,0,1,3.421-4.348,5.041,5.041,0,0,1,6.122,2.79A3.79,3.79,0,0,1,707.717,1179.994Z" transform="translate(0 0)" fill="#00214b"/>
  </g>
</svg>
