<svg xmlns="http://www.w3.org/2000/svg" xmlns:xlink="http://www.w3.org/1999/xlink" width="88.922" height="84.9" viewBox="0 0 88.922 84.9">
  <defs>
    <linearGradient id="linear-gradient" x1="-0.911" y1="-1.729" x2="1.327" y2="1.81" gradientUnits="objectBoundingBox">
      <stop offset="0" stop-color="#37bdee"/>
      <stop offset="0.566" stop-color="#4b72c1"/>
      <stop offset="1" stop-color="#2d3c59"/>
    </linearGradient>
    <linearGradient id="linear-gradient-2" x1="-1.754" y1="-4.635" x2="2.981" y2="6.161" xlink:href="#linear-gradient"/>
    <linearGradient id="linear-gradient-3" x1="-0.315" y1="-0.772" x2="1.145" y2="1.506" xlink:href="#linear-gradient"/>
  </defs>
  <g id="Group_2846" data-name="Group 2846" transform="translate(-0.63 -2.605)">
    <g id="Group_2847" data-name="Group 2847">
      <path id="Path_1179" data-name="Path 1179" d="M89.482,25.075l-1.63-5.73a1.751,1.751,0,0,0-2.17-1.21l-6.17,1.76a19.478,19.478,0,0,0-3.68-4.48l3.18-5.7a1.753,1.753,0,0,0-.68-2.38l-5.21-2.9a1.756,1.756,0,0,0-2.39.68l-3.24,5.82a19.293,19.293,0,0,0-4.87-.62c-.24,0-.48.01-.72.01l-1.84-6.45a1.745,1.745,0,0,0-2.17-1.2L52.162,4.3a1.749,1.749,0,0,0-1.2,2.17l1.83,6.45a19.5,19.5,0,0,0-4.43,3.46l-5.82-3.24a1.756,1.756,0,0,0-2.39.68l-2.81,5.05a24.086,24.086,0,0,1,18,1.81c.11-.08.21-.16.32-.24a11.961,11.961,0,0,1,7.77-2.21c.25.02.5.04.74.08a11.9,11.9,0,0,1,7.28,3.87c.13.15.25.29.37.44a11.826,11.826,0,0,1,2.58,8.25c-.01.11-.01.22-.02.32a11.907,11.907,0,0,1-4.26,7.99c-.04.03-.07.06-.11.09-.27.22-.56.42-.85.62a30,30,0,0,1,.5,5.47,28.948,28.948,0,0,1-2.2,11.18l5.35-1.52a1.767,1.767,0,0,0,1.21-2.17l-1.63-5.69a19.442,19.442,0,0,0,4.83-3.88l5.22,2.9a1.747,1.747,0,0,0,2.38-.68l2.9-5.21a1.747,1.747,0,0,0-.68-2.38l-5.34-2.97a19.386,19.386,0,0,0,.59-6l5.98-1.71A1.737,1.737,0,0,0,89.482,25.075Z" fill="#00214b"/>
    </g>
    <g id="Group_2848" data-name="Group 2848">
      <path id="Path_1180" data-name="Path 1180" d="M22.662,69.395a5.252,5.252,0,0,1-1.38,5.37L9.532,86.045a5.258,5.258,0,1,1-7.28-7.59L14,67.175a5.257,5.257,0,0,1,4.66-1.36l8.73-8.38,3.71,3.87Z" fill="url(#linear-gradient)"/>
    </g>
    <g id="Group_2849" data-name="Group 2849">
      <path id="Path_1181" data-name="Path 1181" d="M31.19,40.451a1.006,1.006,0,0,1-.946-1.352A12.683,12.683,0,0,1,43.7,30.69a1.007,1.007,0,0,1-.248,2,10.694,10.694,0,0,0-11.321,7.1A1.007,1.007,0,0,1,31.19,40.451Z" fill="url(#linear-gradient-2)"/>
    </g>
    <path id="Path_1182" data-name="Path 1182" d="M65.5,41.515a23.363,23.363,0,0,0-22.76-20.13h-.38a23.355,23.355,0,1,0,22.66,29.04,23.642,23.642,0,0,0,.7-5.69A24.646,24.646,0,0,0,65.5,41.515Zm-5.68,7.61a18,18,0,1,1-17.46-22.38h.29a17.727,17.727,0,0,1,7.59,1.81,17.965,17.965,0,0,1,9.95,13.69,18.824,18.824,0,0,1,.17,2.49A17.953,17.953,0,0,1,59.822,49.125Z" fill="url(#linear-gradient-3)"/>
  </g>
</svg>
