<svg id="download-tray" xmlns="http://www.w3.org/2000/svg" width="23.783" height="26.145" viewBox="0 0 23.783 26.145">
  <g id="Group_81" data-name="Group 81" transform="translate(0)">
    <path id="Path_149" data-name="Path 149" d="M20.845,263.3H42.6a1.015,1.015,0,0,0,1.012-1.012v-9.109a1.012,1.012,0,0,0-2.024,0v8.1H21.857v-8.1a1.012,1.012,0,0,0-2.024,0v9.109A1.015,1.015,0,0,0,20.845,263.3Z" transform="translate(-19.833 -237.155)" fill="#69b501"/>
    <path id="Path_150" data-name="Path 150" d="M76.529,0a1.015,1.015,0,0,0-1.012,1.012V16.429l-6.427-5.971a1.014,1.014,0,1,0-1.383,1.484l8.1,7.506a1.031,1.031,0,0,0,.371.219,1.313,1.313,0,0,0,.354.067,1.024,1.024,0,0,0,.843-.455l7.978-7.337a1.015,1.015,0,0,0-1.366-1.5l-6.443,5.937V1.012A1.015,1.015,0,0,0,76.529,0Z" transform="translate(-64.553)" fill="#69b501"/>
  </g>
</svg>
