<svg xmlns="http://www.w3.org/2000/svg" width="24.296" height="39.511" viewBox="0 0 24.296 39.511">
  <g id="Group_2355" data-name="Group 2355" transform="translate(-1120.235 -248.834)">
    <g id="Path_508" data-name="Path 508" transform="matrix(0.999, -0.035, 0.035, 0.999, 1120.235, 249.635)" fill="none">
      <path d="M11.377,0C17.716.071,22.9,4.888,22.958,10.759S14.6,38.834,11.7,38.733C7.877,38.69.057,16.374,0,10.5S5.037-.07,11.377,0Z" stroke="none"/>
      <path d="M 11.23587799072266 2.000003814697266 C 9.887967109680176 2.000003814697266 8.592927932739258 2.252914428710938 7.386727333068848 2.751701354980469 C 6.232236862182617 3.229114532470703 5.215408325195312 3.906833648681641 4.364458084106445 4.766033172607422 C 2.819417953491211 6.326061248779297 1.979837417602539 8.356662750244141 2.000377655029297 10.48376274108887 C 2.023708343505859 12.90004348754883 3.72349739074707 19.21147346496582 5.95423698425293 25.16470336914062 C 7.130928039550781 28.30495262145996 8.344677925109863 31.07251358032227 9.464267730712891 33.16817474365234 C 10.46488666534424 35.04113006591797 11.16636180877686 35.96063232421875 11.57779884338379 36.40195846557617 C 11.96617031097412 35.91007614135742 12.61851787567139 34.93999481201172 13.56554794311523 33.07944488525391 C 14.64484786987305 30.95902252197266 15.8669376373291 28.13785171508789 17.00669860839844 25.13562393188477 C 19.35514831542969 18.9495735168457 20.98003768920898 13.04543304443359 20.95813751220703 10.77782249450684 C 20.91196823120117 5.996494293212891 16.60373687744141 2.059074401855469 11.35416793823242 2.000652313232422 C 11.31448745727539 2.000213623046875 11.2754373550415 2.000003814697266 11.23587799072266 2.000003814697266 M 11.23587989807129 0 C 11.28294563293457 0 11.32941150665283 0.0002593994140625 11.37661743164062 0.000782012939453125 C 17.71616744995117 0.07132339477539062 22.90135765075684 4.887722015380859 22.95804786682129 10.75851249694824 C 23.01460647583008 16.61568641662598 14.6359806060791 38.73301696777344 11.71896553039551 38.73301696777344 C 11.71218490600586 38.73301696777344 11.70584011077881 38.73290634155273 11.69911766052246 38.73267364501953 C 7.877167701721191 38.69014358520508 0.05715751647949219 16.37386322021484 0.0004673004150390625 10.50307273864746 C -0.05579948425292969 4.675998687744141 4.962162017822266 0 11.23587989807129 0 Z" stroke="none" fill="#00214b"/>
    </g>
    <g id="Path_509" data-name="Path 509" transform="translate(1126.753 254.315)" fill="#00214b">
      <path d="M 5.193765640258789 9.38753604888916 C 2.8813157081604 9.38753604888916 0.9999956488609314 7.506215572357178 0.9999956488609314 5.193765640258789 C 0.9999956488609314 2.8813157081604 2.8813157081604 0.9999956488609314 5.193765640258789 0.9999956488609314 C 7.506215572357178 0.9999956488609314 9.38753604888916 2.8813157081604 9.38753604888916 5.193765640258789 C 9.38753604888916 7.506215572357178 7.506215572357178 9.38753604888916 5.193765640258789 9.38753604888916 Z" stroke="none"/>
      <path d="M 5.193765640258789 1.999995231628418 C 3.43271541595459 1.999995231628418 1.999995231628418 3.43271541595459 1.999995231628418 5.193765640258789 C 1.999995231628418 6.954815864562988 3.43271541595459 8.38753604888916 5.193765640258789 8.38753604888916 C 6.954815864562988 8.38753604888916 8.38753604888916 6.954815864562988 8.38753604888916 5.193765640258789 C 8.38753604888916 3.43271541595459 6.954815864562988 1.999995231628418 5.193765640258789 1.999995231628418 M 5.193765640258789 -4.76837158203125e-06 C 8.06220531463623 -4.76837158203125e-06 10.38753604888916 2.325325965881348 10.38753604888916 5.193765640258789 C 10.38753604888916 8.06220531463623 8.06220531463623 10.38753604888916 5.193765640258789 10.38753604888916 C 2.325325965881348 10.38753604888916 -4.76837158203125e-06 8.06220531463623 -4.76837158203125e-06 5.193765640258789 C -4.76837158203125e-06 2.325325965881348 2.325325965881348 -4.76837158203125e-06 5.193765640258789 -4.76837158203125e-06 Z" stroke="none" fill="#00214b"/>
    </g>
  </g>
</svg>
