<svg xmlns="http://www.w3.org/2000/svg" width="26.575" height="23.03" viewBox="0 0 26.575 23.03">
  <g id="download-tray" transform="translate(-32.273 -3.856)">
    <g id="Group_81" data-name="Group 81">
      <g id="Path_149" data-name="Path 149">
        <path id="Path_494" data-name="Path 494" d="M42.653,26.246a.63.63,0,0,1-.63.64h-9.11a.636.636,0,0,1-.64-.63V4.5a.644.644,0,0,1,.64-.64h9.11a.64.64,0,0,1,0,1.28h-8.48v20.48h8.48A.627.627,0,0,1,42.653,26.246Z" fill="#00214b"/>
        <path id="Path_495" data-name="Path 495" d="M42.023,25.616h-8.48V5.136h8.48a.64.64,0,0,0,0-1.28h-9.11a.644.644,0,0,0-.64.64v21.76a.636.636,0,0,0,.64.63h9.11a.635.635,0,0,0,0-1.27Z" fill="#00214b"/>
      </g>
      <g id="Path_150" data-name="Path 150" transform="translate(2.825 0.761)">
        <path id="Path_496" data-name="Path 496" d="M56.024,14.7a.581.581,0,0,1-.584.575H40.628l5.935,6.456a.581.581,0,0,1-.037.794.682.682,0,0,1-.411.164.545.545,0,0,1-.4-.173l-6.766-7.333a.58.58,0,0,1-.265-.466.994.994,0,0,1,.046-.237.542.542,0,0,1,.128-.21l6.849-7.4a.554.554,0,0,1,.411-.183c.009,0,.009-.009.018-.009a.608.608,0,0,1,.4.164.59.59,0,0,1,.183.4.549.549,0,0,1-.155.42l-5.99,6.447H55.439A.589.589,0,0,1,56.024,14.7Z" fill="#00214b"/>
      </g>
    </g>
  </g>
</svg>
