<svg xmlns="http://www.w3.org/2000/svg" xmlns:xlink="http://www.w3.org/1999/xlink" width="194" height="194" viewBox="0 0 194 194">
  <defs>
    <filter id="Ellipse_6" x="0" y="0" width="194" height="194" filterUnits="userSpaceOnUse">
      <feOffset dy="3" input="SourceAlpha"/>
      <feGaussianBlur stdDeviation="15" result="blur"/>
      <feFlood flood-opacity="0.161"/>
      <feComposite operator="in" in2="blur"/>
      <feComposite in="SourceGraphic"/>
    </filter>
    <filter id="Path_993" x="51" y="44.067" width="100.919" height="104.865" filterUnits="userSpaceOnUse">
      <feOffset dy="3" input="SourceAlpha"/>
      <feGaussianBlur stdDeviation="10" result="blur-2"/>
      <feFlood/>
      <feComposite operator="in" in2="blur-2"/>
      <feComposite in="SourceGraphic"/>
    </filter>
  </defs>
  <g id="Group_2209" data-name="Group 2209" transform="translate(-1386 -266)">
    <g id="Group_116" data-name="Group 116" transform="translate(61.793 17.793)">
      <g id="Group_2208" data-name="Group 2208">
        <g transform="matrix(1, 0, 0, 1, 1324.21, 248.21)" filter="url(#Ellipse_6)">
          <g id="Ellipse_6-2" data-name="Ellipse 6" transform="translate(45 42)" fill="none" stroke="#8de219" stroke-width="5">
            <circle cx="52" cy="52" r="52" stroke="none"/>
            <circle cx="52" cy="52" r="49.5" fill="none"/>
          </g>
        </g>
        <g transform="matrix(1, 0, 0, 1, 1324.21, 248.21)" filter="url(#Path_993)">
          <path id="Path_993-2" data-name="Path 993" d="M21.426,10.6a7,7,0,0,1,12.148,0L49,37.52A7,7,0,0,1,42.922,48H12.078A7,7,0,0,1,6,37.52Z" transform="translate(129 66) rotate(90)" fill="#fff"/>
        </g>
      </g>
    </g>
  </g>
</svg>
